SplineFontDB: 3.2
FontName: Pixel-12x12
FullName: Pixel 12x12
FamilyName: Pixel
Weight: Regular
Copyright: Copyright (c) 2024, CTCL
UComments: "2024-5-14: Created with FontForge (http://fontforge.org)"
Version: 0.1.0
ItalicAngle: 0
UnderlinePosition: -76
UnderlineWidth: 38
Ascent: 768
Descent: 0
InvalidEm: 0
LayerCount: 2
Layer: 0 0 "Back" 1
Layer: 1 0 "Fore" 0
XUID: [1021 591 -1735377019 13039367]
StyleMap: 0x0000
FSType: 0
OS2Version: 0
OS2_WeightWidthSlopeOnly: 0
OS2_UseTypoMetrics: 1
CreationTime: 1715699498
ModificationTime: 1715713000
PfmFamily: 17
TTFWeight: 400
TTFWidth: 3
LineGap: 69
VLineGap: 0
OS2TypoAscent: 0
OS2TypoAOffset: 1
OS2TypoDescent: 0
OS2TypoDOffset: 1
OS2TypoLinegap: 69
OS2WinAscent: 0
OS2WinAOffset: 1
OS2WinDescent: 0
OS2WinDOffset: 1
HheadAscent: 0
HheadAOffset: 1
HheadDescent: 0
HheadDOffset: 1
OS2Vendor: 'PfEd'
MarkAttachClasses: 1
DEI: 91125
LangName: 1033
Encoding: ISO8859-1
UnicodeInterp: none
NameList: AGL For New Fonts
DisplaySize: -48
AntiAlias: 1
FitToEm: 0
WinInfo: 0 38 14
BeginPrivate: 0
EndPrivate
TeXData: 1 0 0 1048576 524288 349525 699051 1048576 349525 783286 444596 497025 792723 393216 433062 380633 303038 157286 324010 404750 52429 2506097 1059062 262144
BeginChars: 256 91

StartChar: A
Encoding: 65 65 0
Width: 768
Flags: HW
LayerCount: 2
Fore
SplineSet
192 768 m 1
 256 768 l 1
 320 768 l 1
 384 768 l 1
 448 768 l 1
 512 768 l 1
 576 768 l 1
 576 704 l 1
 640 704 l 1
 640 640 l 1
 640 576 l 1
 640 512 l 1
 640 448 l 1
 640 384 l 1
 640 320 l 1
 640 256 l 1
 640 192 l 1
 640 128 l 1
 640 64 l 1
 640 0 l 1
 576 0 l 1
 512 0 l 1
 512 64 l 1
 512 128 l 1
 512 192 l 1
 512 256 l 1
 512 320 l 1
 448 320 l 1
 384 320 l 1
 320 320 l 1
 256 320 l 1
 256 256 l 1
 256 192 l 1
 256 128 l 1
 256 64 l 1
 256 0 l 1
 192 0 l 1
 128 0 l 1
 128 64 l 1
 128 128 l 1
 128 192 l 1
 128 256 l 1
 128 320 l 1
 128 384 l 1
 128 448 l 1
 128 512 l 1
 128 576 l 1
 128 640 l 1
 128 704 l 1
 192 704 l 1
 192 768 l 1
256 640 m 1
 256 576 l 1
 256 512 l 1
 256 448 l 1
 320 448 l 1
 384 448 l 1
 448 448 l 1
 512 448 l 1
 512 512 l 1
 512 576 l 1
 512 640 l 1
 448 640 l 1
 384 640 l 1
 320 640 l 1
 256 640 l 1
EndSplineSet
Validated: 1
EndChar

StartChar: B
Encoding: 66 66 1
Width: 768
Flags: HW
LayerCount: 2
Fore
SplineSet
128 768 m 1
 192 768 l 1
 256 768 l 1
 320 768 l 1
 384 768 l 1
 448 768 l 1
 512 768 l 1
 576 768 l 1
 576 704 l 1
 640 704 l 1
 640 640 l 1
 640 576 l 1
 640 512 l 1
 640 448 l 1
 576 448 l 1
 576 384 l 1
 576 320 l 1
 640 320 l 1
 640 256 l 1
 640 192 l 1
 640 128 l 1
 640 64 l 1
 576 64 l 1
 576 0 l 1
 512 0 l 1
 448 0 l 1
 384 0 l 1
 320 0 l 1
 256 0 l 1
 192 0 l 1
 128 0 l 1
 128 64 l 1
 128 128 l 1
 128 192 l 1
 128 256 l 1
 128 320 l 1
 128 384 l 1
 128 448 l 1
 128 512 l 1
 128 576 l 1
 128 640 l 1
 128 704 l 1
 128 768 l 1
256 640 m 1
 256 576 l 1
 256 512 l 1
 256 448 l 1
 320 448 l 1
 384 448 l 1
 448 448 l 1
 512 448 l 1
 512 512 l 1
 512 576 l 1
 512 640 l 1
 448 640 l 1
 384 640 l 1
 320 640 l 1
 256 640 l 1
256 320 m 1
 256 256 l 1
 256 192 l 1
 256 128 l 1
 320 128 l 1
 384 128 l 1
 448 128 l 1
 512 128 l 1
 512 192 l 1
 512 256 l 1
 512 320 l 1
 448 320 l 1
 384 320 l 1
 320 320 l 1
 256 320 l 1
EndSplineSet
Validated: 1
EndChar

StartChar: C
Encoding: 67 67 2
Width: 768
Flags: HW
LayerCount: 2
Fore
SplineSet
128 768 m 1
 192 768 l 1
 256 768 l 1
 320 768 l 1
 384 768 l 1
 448 768 l 1
 512 768 l 1
 576 768 l 1
 640 768 l 1
 640 704 l 1
 640 640 l 1
 576 640 l 1
 512 640 l 1
 448 640 l 1
 384 640 l 1
 320 640 l 1
 256 640 l 1
 256 576 l 1
 256 512 l 1
 256 448 l 1
 256 384 l 1
 256 320 l 1
 256 256 l 1
 256 192 l 1
 256 128 l 1
 320 128 l 1
 384 128 l 1
 448 128 l 1
 512 128 l 1
 576 128 l 1
 640 128 l 1
 640 64 l 1
 640 0 l 1
 576 0 l 1
 512 0 l 1
 448 0 l 1
 384 0 l 1
 320 0 l 1
 256 0 l 1
 192 0 l 1
 128 0 l 1
 128 64 l 1
 128 128 l 1
 128 192 l 1
 128 256 l 1
 128 320 l 1
 128 384 l 1
 128 448 l 1
 128 512 l 1
 128 576 l 1
 128 640 l 1
 128 704 l 1
 128 768 l 1
EndSplineSet
Validated: 1
EndChar

StartChar: D
Encoding: 68 68 3
Width: 768
Flags: HW
LayerCount: 2
Fore
SplineSet
128 768 m 1
 192 768 l 1
 256 768 l 1
 320 768 l 1
 384 768 l 1
 448 768 l 1
 512 768 l 1
 576 768 l 1
 576 704 l 1
 640 704 l 1
 640 640 l 1
 640 576 l 1
 640 512 l 1
 640 448 l 1
 640 384 l 1
 640 320 l 1
 640 256 l 1
 640 192 l 1
 640 128 l 1
 640 64 l 1
 576 64 l 1
 576 0 l 1
 512 0 l 1
 448 0 l 1
 384 0 l 1
 320 0 l 1
 256 0 l 1
 192 0 l 1
 128 0 l 1
 128 64 l 1
 128 128 l 1
 128 192 l 1
 128 256 l 1
 128 320 l 1
 128 384 l 1
 128 448 l 1
 128 512 l 1
 128 576 l 1
 128 640 l 1
 128 704 l 1
 128 768 l 1
256 640 m 1
 256 576 l 1
 256 512 l 1
 256 448 l 1
 256 384 l 1
 256 320 l 1
 256 256 l 1
 256 192 l 1
 256 128 l 1
 320 128 l 1
 384 128 l 1
 448 128 l 1
 512 128 l 1
 512 192 l 1
 512 256 l 1
 512 320 l 1
 512 384 l 1
 512 448 l 1
 512 512 l 1
 512 576 l 1
 512 640 l 1
 448 640 l 1
 384 640 l 1
 320 640 l 1
 256 640 l 1
EndSplineSet
Validated: 1
EndChar

StartChar: E
Encoding: 69 69 4
Width: 768
Flags: HW
LayerCount: 2
Fore
SplineSet
128 768 m 1
 192 768 l 1
 256 768 l 1
 320 768 l 1
 384 768 l 1
 448 768 l 1
 512 768 l 1
 576 768 l 1
 640 768 l 1
 640 704 l 1
 640 640 l 1
 576 640 l 1
 512 640 l 1
 448 640 l 1
 384 640 l 1
 320 640 l 1
 256 640 l 1
 256 576 l 1
 256 512 l 1
 256 448 l 1
 320 448 l 1
 384 448 l 1
 448 448 l 1
 512 448 l 1
 576 448 l 1
 640 448 l 1
 640 384 l 1
 640 320 l 1
 576 320 l 1
 512 320 l 1
 448 320 l 1
 384 320 l 1
 320 320 l 1
 256 320 l 1
 256 256 l 1
 256 192 l 1
 256 128 l 1
 320 128 l 1
 384 128 l 1
 448 128 l 1
 512 128 l 1
 576 128 l 1
 640 128 l 1
 640 64 l 1
 640 0 l 1
 576 0 l 1
 512 0 l 1
 448 0 l 1
 384 0 l 1
 320 0 l 1
 256 0 l 1
 192 0 l 1
 128 0 l 1
 128 64 l 1
 128 128 l 1
 128 192 l 1
 128 256 l 1
 128 320 l 1
 128 384 l 1
 128 448 l 1
 128 512 l 1
 128 576 l 1
 128 640 l 1
 128 704 l 1
 128 768 l 1
EndSplineSet
Validated: 1
EndChar

StartChar: F
Encoding: 70 70 5
Width: 768
Flags: HW
LayerCount: 2
Fore
SplineSet
128 768 m 1
 192 768 l 1
 256 768 l 1
 320 768 l 1
 384 768 l 1
 448 768 l 1
 512 768 l 1
 576 768 l 1
 640 768 l 1
 640 704 l 1
 640 640 l 1
 576 640 l 1
 512 640 l 1
 448 640 l 1
 384 640 l 1
 320 640 l 1
 256 640 l 1
 256 576 l 1
 256 512 l 1
 256 448 l 1
 320 448 l 1
 384 448 l 1
 448 448 l 1
 512 448 l 1
 512 384 l 1
 512 320 l 1
 448 320 l 1
 384 320 l 1
 320 320 l 1
 256 320 l 1
 256 256 l 1
 256 192 l 1
 256 128 l 1
 256 64 l 1
 256 0 l 1
 192 0 l 1
 128 0 l 1
 128 64 l 1
 128 128 l 1
 128 192 l 1
 128 256 l 1
 128 320 l 1
 128 384 l 1
 128 448 l 1
 128 512 l 1
 128 576 l 1
 128 640 l 1
 128 704 l 1
 128 768 l 1
EndSplineSet
Validated: 1
EndChar

StartChar: G
Encoding: 71 71 6
Width: 768
Flags: HW
LayerCount: 2
Fore
SplineSet
128 768 m 1
 192 768 l 1
 256 768 l 1
 320 768 l 1
 384 768 l 1
 448 768 l 1
 512 768 l 1
 576 768 l 1
 640 768 l 1
 640 704 l 1
 640 640 l 1
 576 640 l 1
 512 640 l 1
 448 640 l 1
 384 640 l 1
 320 640 l 1
 256 640 l 1
 256 576 l 1
 256 512 l 1
 256 448 l 1
 256 384 l 1
 256 320 l 1
 256 256 l 1
 256 192 l 1
 256 128 l 1
 320 128 l 1
 384 128 l 1
 448 128 l 1
 512 128 l 1
 512 192 l 1
 512 256 l 1
 512 320 l 1
 448 320 l 1
 384 320 l 1
 384 384 l 1
 384 448 l 1
 448 448 l 1
 512 448 l 1
 576 448 l 1
 640 448 l 1
 640 384 l 1
 640 320 l 1
 640 256 l 1
 640 192 l 1
 640 128 l 1
 640 64 l 1
 640 0 l 1
 576 0 l 1
 512 0 l 1
 448 0 l 1
 384 0 l 1
 320 0 l 1
 256 0 l 1
 192 0 l 1
 128 0 l 1
 128 64 l 1
 128 128 l 1
 128 192 l 1
 128 256 l 1
 128 320 l 1
 128 384 l 1
 128 448 l 1
 128 512 l 1
 128 576 l 1
 128 640 l 1
 128 704 l 1
 128 768 l 1
EndSplineSet
Validated: 1
EndChar

StartChar: H
Encoding: 72 72 7
Width: 758
Flags: HW
LayerCount: 2
Fore
SplineSet
118 768 m 1
 182 768 l 1
 246 768 l 1
 246 704 l 1
 246 640 l 1
 246 576 l 1
 246 512 l 1
 246 448 l 1
 310 448 l 1
 374 448 l 1
 438 448 l 1
 502 448 l 1
 502 512 l 1
 502 576 l 1
 502 640 l 1
 502 704 l 1
 502 768 l 1
 566 768 l 1
 630 768 l 1
 630 704 l 1
 630 640 l 1
 630 576 l 1
 630 512 l 1
 630 448 l 1
 630 384 l 1
 630 320 l 1
 630 256 l 1
 630 192 l 1
 630 128 l 1
 630 64 l 1
 630 0 l 1
 566 0 l 1
 502 0 l 1
 502 64 l 1
 502 128 l 1
 502 192 l 1
 502 256 l 1
 502 320 l 1
 438 320 l 1
 374 320 l 1
 310 320 l 1
 246 320 l 1
 246 256 l 1
 246 192 l 1
 246 128 l 1
 246 64 l 1
 246 0 l 1
 182 0 l 1
 118 0 l 1
 118 64 l 1
 118 128 l 1
 118 192 l 1
 118 256 l 1
 118 320 l 1
 118 384 l 1
 118 448 l 1
 118 512 l 1
 118 576 l 1
 118 640 l 1
 118 704 l 1
 118 768 l 1
EndSplineSet
Validated: 1
EndChar

StartChar: I
Encoding: 73 73 8
Width: 768
Flags: HW
LayerCount: 2
Fore
SplineSet
128 768 m 1
 192 768 l 1
 256 768 l 1
 320 768 l 1
 384 768 l 1
 448 768 l 1
 512 768 l 1
 576 768 l 1
 640 768 l 1
 640 704 l 1
 640 640 l 1
 576 640 l 1
 512 640 l 1
 448 640 l 1
 448 576 l 1
 448 512 l 1
 448 448 l 1
 448 384 l 1
 448 320 l 1
 448 256 l 1
 448 192 l 1
 448 128 l 1
 512 128 l 1
 576 128 l 1
 640 128 l 1
 640 64 l 1
 640 0 l 1
 576 0 l 1
 512 0 l 1
 448 0 l 1
 384 0 l 1
 320 0 l 1
 256 0 l 1
 192 0 l 1
 128 0 l 1
 128 64 l 1
 128 128 l 1
 192 128 l 1
 256 128 l 1
 320 128 l 1
 320 192 l 1
 320 256 l 1
 320 320 l 1
 320 384 l 1
 320 448 l 1
 320 512 l 1
 320 576 l 1
 320 640 l 1
 256 640 l 1
 192 640 l 1
 128 640 l 1
 128 704 l 1
 128 768 l 1
EndSplineSet
Validated: 1
EndChar

StartChar: J
Encoding: 74 74 9
Width: 768
Flags: HW
LayerCount: 2
Fore
SplineSet
512 768 m 1
 576 768 l 1
 640 768 l 1
 640 704 l 1
 640 640 l 1
 640 576 l 1
 640 512 l 1
 640 448 l 1
 640 384 l 1
 640 320 l 1
 640 256 l 1
 640 192 l 1
 640 128 l 1
 640 64 l 1
 576 64 l 1
 576 0 l 1
 512 0 l 1
 448 0 l 1
 384 0 l 1
 320 0 l 1
 256 0 l 1
 192 0 l 1
 192 64 l 1
 128 64 l 1
 128 128 l 1
 128 192 l 1
 128 256 l 1
 192 256 l 1
 256 256 l 1
 256 192 l 1
 320 192 l 1
 320 128 l 1
 384 128 l 1
 448 128 l 1
 448 192 l 1
 512 192 l 1
 512 256 l 1
 512 320 l 1
 512 384 l 1
 512 448 l 1
 512 512 l 1
 512 576 l 1
 512 640 l 1
 512 704 l 1
 512 768 l 1
EndSplineSet
Validated: 1
EndChar

StartChar: K
Encoding: 75 75 10
Width: 768
Flags: HW
LayerCount: 2
Fore
SplineSet
128 768 m 1
 192 768 l 1
 256 768 l 1
 256 704 l 1
 256 640 l 1
 256 576 l 1
 256 512 l 1
 256 448 l 1
 320 448 l 1
 320 512 l 1
 384 512 l 1
 384 576 l 1
 448 576 l 1
 448 640 l 1
 512 640 l 1
 512 704 l 1
 512 768 l 1
 576 768 l 1
 640 768 l 1
 640 704 l 1
 640 640 l 1
 640 576 l 1
 576 576 l 1
 576 512 l 1
 512 512 l 1
 512 448 l 1
 448 448 l 1
 448 384 l 1
 448 320 l 1
 512 320 l 1
 512 256 l 1
 576 256 l 1
 576 192 l 1
 640 192 l 1
 640 128 l 1
 640 64 l 1
 640 0 l 1
 576 0 l 1
 512 0 l 1
 512 64 l 1
 512 128 l 1
 448 128 l 1
 448 192 l 1
 384 192 l 1
 384 256 l 1
 320 256 l 1
 320 320 l 1
 256 320 l 1
 256 256 l 1
 256 192 l 1
 256 128 l 1
 256 64 l 1
 256 0 l 1
 192 0 l 1
 128 0 l 1
 128 64 l 1
 128 128 l 1
 128 192 l 1
 128 256 l 1
 128 320 l 1
 128 384 l 1
 128 448 l 1
 128 512 l 1
 128 576 l 1
 128 640 l 1
 128 704 l 1
 128 768 l 1
EndSplineSet
Validated: 1
EndChar

StartChar: L
Encoding: 76 76 11
Width: 768
Flags: HW
LayerCount: 2
Fore
SplineSet
128 768 m 1
 192 768 l 1
 256 768 l 1
 256 704 l 1
 256 640 l 1
 256 576 l 1
 256 512 l 1
 256 448 l 1
 256 384 l 1
 256 320 l 1
 256 256 l 1
 256 192 l 1
 256 128 l 1
 320 128 l 1
 384 128 l 1
 448 128 l 1
 512 128 l 1
 576 128 l 1
 640 128 l 1
 640 64 l 1
 640 0 l 1
 576 0 l 1
 512 0 l 1
 448 0 l 1
 384 0 l 1
 320 0 l 1
 256 0 l 1
 192 0 l 1
 128 0 l 1
 128 64 l 1
 128 128 l 1
 128 192 l 1
 128 256 l 1
 128 320 l 1
 128 384 l 1
 128 448 l 1
 128 512 l 1
 128 576 l 1
 128 640 l 1
 128 704 l 1
 128 768 l 1
EndSplineSet
Validated: 1
EndChar

StartChar: M
Encoding: 77 77 12
Width: 768
Flags: HW
LayerCount: 2
Fore
SplineSet
128 768 m 1
 192 768 l 1
 256 768 l 1
 256 704 l 1
 320 704 l 1
 320 640 l 1
 384 640 l 1
 448 640 l 1
 448 704 l 1
 512 704 l 1
 512 768 l 1
 576 768 l 1
 640 768 l 1
 640 704 l 1
 640 640 l 1
 640 576 l 1
 640 512 l 1
 640 448 l 1
 640 384 l 1
 640 320 l 1
 640 256 l 1
 640 192 l 1
 640 128 l 1
 640 64 l 1
 640 0 l 1
 576 0 l 1
 512 0 l 1
 512 64 l 1
 512 128 l 1
 512 192 l 1
 512 256 l 1
 512 320 l 1
 512 384 l 1
 512 448 l 1
 512 512 l 1
 512 576 l 1
 448 576 l 1
 448 512 l 1
 384 512 l 1
 320 512 l 1
 320 576 l 1
 256 576 l 1
 256 512 l 1
 256 448 l 1
 256 384 l 1
 256 320 l 1
 256 256 l 1
 256 192 l 1
 256 128 l 1
 256 64 l 1
 256 0 l 1
 192 0 l 1
 128 0 l 1
 128 64 l 1
 128 128 l 1
 128 192 l 1
 128 256 l 1
 128 320 l 1
 128 384 l 1
 128 448 l 1
 128 512 l 1
 128 576 l 1
 128 640 l 1
 128 704 l 1
 128 768 l 1
EndSplineSet
Validated: 1
EndChar

StartChar: N
Encoding: 78 78 13
Width: 768
Flags: HW
LayerCount: 2
Fore
SplineSet
128 768 m 1
 192 768 l 1
 256 768 l 1
 256 704 l 1
 320 704 l 1
 320 640 l 1
 384 640 l 1
 384 576 l 1
 448 576 l 1
 448 512 l 1
 512 512 l 1
 512 576 l 1
 512 640 l 1
 512 704 l 1
 512 768 l 1
 576 768 l 1
 640 768 l 1
 640 704 l 1
 640 640 l 1
 640 576 l 1
 640 512 l 1
 640 448 l 1
 640 384 l 1
 640 320 l 1
 640 256 l 1
 640 192 l 1
 640 128 l 1
 640 64 l 1
 640 0 l 1
 576 0 l 1
 512 0 l 1
 512 64 l 1
 512 128 l 1
 512 192 l 1
 512 256 l 1
 512 320 l 1
 512 384 l 1
 448 384 l 1
 448 448 l 1
 384 448 l 1
 384 512 l 1
 320 512 l 1
 320 576 l 1
 256 576 l 1
 256 512 l 1
 256 448 l 1
 256 384 l 1
 256 320 l 1
 256 256 l 1
 256 192 l 1
 256 128 l 1
 256 64 l 1
 256 0 l 1
 192 0 l 1
 128 0 l 1
 128 64 l 1
 128 128 l 1
 128 192 l 1
 128 256 l 1
 128 320 l 1
 128 384 l 1
 128 448 l 1
 128 512 l 1
 128 576 l 1
 128 640 l 1
 128 704 l 1
 128 768 l 1
EndSplineSet
Validated: 1
EndChar

StartChar: O
Encoding: 79 79 14
Width: 768
Flags: HW
LayerCount: 2
Fore
SplineSet
192 768 m 1
 256 768 l 1
 320 768 l 1
 384 768 l 1
 448 768 l 1
 512 768 l 1
 576 768 l 1
 576 704 l 1
 640 704 l 1
 640 640 l 1
 640 576 l 1
 640 512 l 1
 640 448 l 1
 640 384 l 1
 640 320 l 1
 640 256 l 1
 640 192 l 1
 640 128 l 1
 640 64 l 1
 576 64 l 1
 576 0 l 1
 512 0 l 1
 448 0 l 1
 384 0 l 1
 320 0 l 1
 256 0 l 1
 192 0 l 1
 192 64 l 1
 128 64 l 1
 128 128 l 1
 128 192 l 1
 128 256 l 1
 128 320 l 1
 128 384 l 1
 128 448 l 1
 128 512 l 1
 128 576 l 1
 128 640 l 1
 128 704 l 1
 192 704 l 1
 192 768 l 1
256 640 m 1
 256 576 l 1
 256 512 l 1
 256 448 l 1
 256 384 l 1
 256 320 l 1
 256 256 l 1
 256 192 l 1
 256 128 l 1
 320 128 l 1
 384 128 l 1
 448 128 l 1
 512 128 l 1
 512 192 l 1
 512 256 l 1
 512 320 l 1
 512 384 l 1
 512 448 l 1
 512 512 l 1
 512 576 l 1
 512 640 l 1
 448 640 l 1
 384 640 l 1
 320 640 l 1
 256 640 l 1
EndSplineSet
Validated: 1
EndChar

StartChar: P
Encoding: 80 80 15
Width: 768
Flags: HW
LayerCount: 2
Fore
SplineSet
128 768 m 1
 192 768 l 1
 256 768 l 1
 320 768 l 1
 384 768 l 1
 448 768 l 1
 512 768 l 1
 576 768 l 1
 576 704 l 1
 640 704 l 1
 640 640 l 1
 640 576 l 1
 640 512 l 1
 640 448 l 1
 640 384 l 1
 576 384 l 1
 576 320 l 1
 512 320 l 1
 448 320 l 1
 384 320 l 1
 320 320 l 1
 256 320 l 1
 256 256 l 1
 256 192 l 1
 256 128 l 1
 256 64 l 1
 256 0 l 1
 192 0 l 1
 128 0 l 1
 128 64 l 1
 128 128 l 1
 128 192 l 1
 128 256 l 1
 128 320 l 1
 128 384 l 1
 128 448 l 1
 128 512 l 1
 128 576 l 1
 128 640 l 1
 128 704 l 1
 128 768 l 1
256 640 m 1
 256 576 l 1
 256 512 l 1
 256 448 l 1
 320 448 l 1
 384 448 l 1
 448 448 l 1
 512 448 l 1
 512 512 l 1
 512 576 l 1
 512 640 l 1
 448 640 l 1
 384 640 l 1
 320 640 l 1
 256 640 l 1
EndSplineSet
Validated: 1
EndChar

StartChar: Q
Encoding: 81 81 16
Width: 768
Flags: HW
LayerCount: 2
Fore
SplineSet
192 768 m 1
 256 768 l 1
 320 768 l 1
 384 768 l 1
 448 768 l 1
 512 768 l 1
 576 768 l 1
 576 704 l 1
 640 704 l 1
 640 640 l 1
 640 576 l 1
 640 512 l 1
 640 448 l 1
 640 384 l 1
 640 320 l 1
 640 256 l 1
 640 192 l 1
 640 128 l 1
 640 64 l 1
 576 64 l 1
 576 0 l 1
 512 0 l 1
 448 0 l 1
 384 0 l 1
 320 0 l 1
 256 0 l 1
 192 0 l 1
 192 64 l 1
 128 64 l 1
 128 128 l 1
 128 192 l 1
 128 256 l 1
 128 320 l 1
 128 384 l 1
 128 448 l 1
 128 512 l 1
 128 576 l 1
 128 640 l 1
 128 704 l 1
 192 704 l 1
 192 768 l 1
256 640 m 1
 256 576 l 1
 256 512 l 1
 256 448 l 1
 256 384 l 1
 256 320 l 1
 256 256 l 1
 256 192 l 1
 256 128 l 1
 320 128 l 1
 384 128 l 1
 384 192 l 1
 384 256 l 1
 448 256 l 1
 512 256 l 1
 512 320 l 1
 512 384 l 1
 512 448 l 1
 512 512 l 1
 512 576 l 1
 512 640 l 1
 448 640 l 1
 384 640 l 1
 320 640 l 1
 256 640 l 1
EndSplineSet
Validated: 1
EndChar

StartChar: R
Encoding: 82 82 17
Width: 768
Flags: HW
LayerCount: 2
Fore
SplineSet
128 768 m 1
 192 768 l 1
 256 768 l 1
 320 768 l 1
 384 768 l 1
 448 768 l 1
 512 768 l 1
 576 768 l 1
 576 704 l 1
 640 704 l 1
 640 640 l 1
 640 576 l 1
 640 512 l 1
 640 448 l 1
 640 384 l 1
 576 384 l 1
 576 320 l 1
 512 320 l 1
 448 320 l 1
 384 320 l 1
 384 256 l 1
 448 256 l 1
 448 192 l 1
 512 192 l 1
 512 128 l 1
 576 128 l 1
 576 64 l 1
 640 64 l 1
 640 0 l 1
 576 0 l 1
 512 0 l 1
 448 0 l 1
 448 64 l 1
 384 64 l 1
 384 128 l 1
 320 128 l 1
 320 192 l 1
 256 192 l 1
 256 128 l 1
 256 64 l 1
 256 0 l 1
 192 0 l 1
 128 0 l 1
 128 64 l 1
 128 128 l 1
 128 192 l 1
 128 256 l 1
 128 320 l 1
 128 384 l 1
 128 448 l 1
 128 512 l 1
 128 576 l 1
 128 640 l 1
 128 704 l 1
 128 768 l 1
256 640 m 1
 256 576 l 1
 256 512 l 1
 256 448 l 1
 320 448 l 1
 384 448 l 1
 448 448 l 1
 512 448 l 1
 512 512 l 1
 512 576 l 1
 512 640 l 1
 448 640 l 1
 384 640 l 1
 320 640 l 1
 256 640 l 1
EndSplineSet
Validated: 1
EndChar

StartChar: S
Encoding: 83 83 18
Width: 768
Flags: HW
LayerCount: 2
Fore
SplineSet
192 768 m 1
 256 768 l 1
 320 768 l 1
 384 768 l 1
 448 768 l 1
 512 768 l 1
 576 768 l 1
 640 768 l 1
 640 704 l 1
 640 640 l 1
 576 640 l 1
 512 640 l 1
 448 640 l 1
 384 640 l 1
 320 640 l 1
 256 640 l 1
 256 576 l 1
 256 512 l 1
 256 448 l 1
 320 448 l 1
 384 448 l 1
 448 448 l 1
 512 448 l 1
 576 448 l 1
 576 384 l 1
 640 384 l 1
 640 320 l 1
 640 256 l 1
 640 192 l 1
 640 128 l 1
 640 64 l 1
 576 64 l 1
 576 0 l 1
 512 0 l 1
 448 0 l 1
 384 0 l 1
 320 0 l 1
 256 0 l 1
 192 0 l 1
 128 0 l 1
 128 64 l 1
 128 128 l 1
 192 128 l 1
 256 128 l 1
 320 128 l 1
 384 128 l 1
 448 128 l 1
 512 128 l 1
 512 192 l 1
 512 256 l 1
 512 320 l 1
 448 320 l 1
 384 320 l 1
 320 320 l 1
 256 320 l 1
 192 320 l 1
 192 384 l 1
 128 384 l 1
 128 448 l 1
 128 512 l 1
 128 576 l 1
 128 640 l 1
 128 704 l 1
 192 704 l 1
 192 768 l 1
EndSplineSet
Validated: 1
EndChar

StartChar: T
Encoding: 84 84 19
Width: 768
Flags: HW
LayerCount: 2
Fore
SplineSet
128 768 m 1
 192 768 l 1
 256 768 l 1
 320 768 l 1
 384 768 l 1
 448 768 l 1
 512 768 l 1
 576 768 l 1
 640 768 l 1
 640 704 l 1
 640 640 l 1
 576 640 l 1
 512 640 l 1
 448 640 l 1
 448 576 l 1
 448 512 l 1
 448 448 l 1
 448 384 l 1
 448 320 l 1
 448 256 l 1
 448 192 l 1
 448 128 l 1
 448 64 l 1
 448 0 l 1
 384 0 l 1
 320 0 l 1
 320 64 l 1
 320 128 l 1
 320 192 l 1
 320 256 l 1
 320 320 l 1
 320 384 l 1
 320 448 l 1
 320 512 l 1
 320 576 l 1
 320 640 l 1
 256 640 l 1
 192 640 l 1
 128 640 l 1
 128 704 l 1
 128 768 l 1
EndSplineSet
Validated: 1
EndChar

StartChar: U
Encoding: 85 85 20
Width: 768
Flags: HW
LayerCount: 2
Fore
SplineSet
128 768 m 1
 192 768 l 1
 256 768 l 1
 256 704 l 1
 256 640 l 1
 256 576 l 1
 256 512 l 1
 256 448 l 1
 256 384 l 1
 256 320 l 1
 256 256 l 1
 256 192 l 1
 320 192 l 1
 320 128 l 1
 384 128 l 1
 448 128 l 1
 448 192 l 1
 512 192 l 1
 512 256 l 1
 512 320 l 1
 512 384 l 1
 512 448 l 1
 512 512 l 1
 512 576 l 1
 512 640 l 1
 512 704 l 1
 512 768 l 1
 576 768 l 1
 640 768 l 1
 640 704 l 1
 640 640 l 1
 640 576 l 1
 640 512 l 1
 640 448 l 1
 640 384 l 1
 640 320 l 1
 640 256 l 1
 640 192 l 1
 640 128 l 1
 640 64 l 1
 576 64 l 1
 576 0 l 1
 512 0 l 1
 448 0 l 1
 384 0 l 1
 320 0 l 1
 256 0 l 1
 192 0 l 1
 192 64 l 1
 128 64 l 1
 128 128 l 1
 128 192 l 1
 128 256 l 1
 128 320 l 1
 128 384 l 1
 128 448 l 1
 128 512 l 1
 128 576 l 1
 128 640 l 1
 128 704 l 1
 128 768 l 1
EndSplineSet
Validated: 1
EndChar

StartChar: V
Encoding: 86 86 21
Width: 768
Flags: HW
LayerCount: 2
Fore
SplineSet
128 768 m 1
 192 768 l 1
 256 768 l 1
 256 704 l 1
 256 640 l 1
 256 576 l 1
 256 512 l 1
 256 448 l 1
 256 384 l 1
 256 320 l 1
 256 256 l 1
 320 256 l 1
 320 192 l 1
 384 192 l 1
 448 192 l 1
 448 256 l 1
 512 256 l 1
 512 320 l 1
 512 384 l 1
 512 448 l 1
 512 512 l 1
 512 576 l 1
 512 640 l 1
 512 704 l 1
 512 768 l 1
 576 768 l 1
 640 768 l 1
 640 704 l 1
 640 640 l 1
 640 576 l 1
 640 512 l 1
 640 448 l 1
 640 384 l 1
 640 320 l 1
 640 256 l 1
 640 192 l 1
 576 192 l 1
 576 128 l 1
 512 128 l 1
 512 64 l 1
 448 64 l 1
 448 0 l 1
 384 0 l 1
 320 0 l 1
 320 64 l 1
 256 64 l 1
 256 128 l 1
 192 128 l 1
 192 192 l 1
 128 192 l 1
 128 256 l 1
 128 320 l 1
 128 384 l 1
 128 448 l 1
 128 512 l 1
 128 576 l 1
 128 640 l 1
 128 704 l 1
 128 768 l 1
EndSplineSet
Validated: 1
EndChar

StartChar: W
Encoding: 87 87 22
Width: 768
Flags: HW
LayerCount: 2
Fore
SplineSet
128 768 m 1
 192 768 l 1
 256 768 l 1
 256 704 l 1
 256 640 l 1
 256 576 l 1
 256 512 l 1
 256 448 l 1
 256 384 l 1
 256 320 l 1
 256 256 l 1
 256 192 l 1
 320 192 l 1
 320 256 l 1
 384 256 l 1
 448 256 l 1
 448 192 l 1
 512 192 l 1
 512 256 l 1
 512 320 l 1
 512 384 l 1
 512 448 l 1
 512 512 l 1
 512 576 l 1
 512 640 l 1
 512 704 l 1
 512 768 l 1
 576 768 l 1
 640 768 l 1
 640 704 l 1
 640 640 l 1
 640 576 l 1
 640 512 l 1
 640 448 l 1
 640 384 l 1
 640 320 l 1
 640 256 l 1
 640 192 l 1
 640 128 l 1
 640 64 l 1
 640 0 l 1
 576 0 l 1
 512 0 l 1
 512 64 l 1
 448 64 l 1
 448 128 l 1
 384 128 l 1
 320 128 l 1
 320 64 l 1
 256 64 l 1
 256 0 l 1
 192 0 l 1
 128 0 l 1
 128 64 l 1
 128 128 l 1
 128 192 l 1
 128 256 l 1
 128 320 l 1
 128 384 l 1
 128 448 l 1
 128 512 l 1
 128 576 l 1
 128 640 l 1
 128 704 l 1
 128 768 l 1
EndSplineSet
Validated: 1
EndChar

StartChar: X
Encoding: 88 88 23
Width: 768
Flags: HW
LayerCount: 2
Fore
SplineSet
128 768 m 1
 192 768 l 1
 256 768 l 1
 256 704 l 1
 256 640 l 1
 256 576 l 1
 320 576 l 1
 320 512 l 1
 384 512 l 1
 448 512 l 1
 448 576 l 1
 512 576 l 1
 512 640 l 1
 512 704 l 1
 512 768 l 1
 576 768 l 1
 640 768 l 1
 640 704 l 1
 640 640 l 1
 640 576 l 1
 640 512 l 1
 576 512 l 1
 576 448 l 1
 512 448 l 1
 512 384 l 1
 512 320 l 1
 576 320 l 1
 576 256 l 1
 640 256 l 1
 640 192 l 1
 640 128 l 1
 640 64 l 1
 640 0 l 1
 576 0 l 1
 512 0 l 1
 512 64 l 1
 512 128 l 1
 512 192 l 1
 448 192 l 1
 448 256 l 1
 384 256 l 1
 320 256 l 1
 320 192 l 1
 256 192 l 1
 256 128 l 1
 256 64 l 1
 256 0 l 1
 192 0 l 1
 128 0 l 1
 128 64 l 1
 128 128 l 1
 128 192 l 1
 128 256 l 1
 192 256 l 1
 192 320 l 1
 256 320 l 1
 256 384 l 1
 256 448 l 1
 192 448 l 1
 192 512 l 1
 128 512 l 1
 128 576 l 1
 128 640 l 1
 128 704 l 1
 128 768 l 1
EndSplineSet
Validated: 1
EndChar

StartChar: Y
Encoding: 89 89 24
Width: 768
Flags: HW
LayerCount: 2
Fore
SplineSet
128 768 m 1
 192 768 l 1
 256 768 l 1
 256 704 l 1
 256 640 l 1
 320 640 l 1
 320 576 l 1
 384 576 l 1
 448 576 l 1
 448 640 l 1
 512 640 l 1
 512 704 l 1
 512 768 l 1
 576 768 l 1
 640 768 l 1
 640 704 l 1
 640 640 l 1
 640 576 l 1
 576 576 l 1
 576 512 l 1
 512 512 l 1
 512 448 l 1
 448 448 l 1
 448 384 l 1
 448 320 l 1
 448 256 l 1
 448 192 l 1
 448 128 l 1
 448 64 l 1
 448 0 l 1
 384 0 l 1
 320 0 l 1
 320 64 l 1
 320 128 l 1
 320 192 l 1
 320 256 l 1
 320 320 l 1
 320 384 l 1
 320 448 l 1
 256 448 l 1
 256 512 l 1
 192 512 l 1
 192 576 l 1
 128 576 l 1
 128 640 l 1
 128 704 l 1
 128 768 l 1
EndSplineSet
Validated: 1
EndChar

StartChar: Z
Encoding: 90 90 25
Width: 768
Flags: HW
LayerCount: 2
Fore
SplineSet
128 768 m 1
 192 768 l 1
 256 768 l 1
 320 768 l 1
 384 768 l 1
 448 768 l 1
 512 768 l 1
 576 768 l 1
 640 768 l 1
 640 704 l 1
 640 640 l 1
 640 576 l 1
 640 512 l 1
 576 512 l 1
 576 448 l 1
 512 448 l 1
 512 384 l 1
 448 384 l 1
 448 320 l 1
 384 320 l 1
 384 256 l 1
 320 256 l 1
 320 192 l 1
 256 192 l 1
 256 128 l 1
 320 128 l 1
 384 128 l 1
 448 128 l 1
 512 128 l 1
 576 128 l 1
 640 128 l 1
 640 64 l 1
 640 0 l 1
 576 0 l 1
 512 0 l 1
 448 0 l 1
 384 0 l 1
 320 0 l 1
 256 0 l 1
 192 0 l 1
 128 0 l 1
 128 64 l 1
 128 128 l 1
 128 192 l 1
 128 256 l 1
 192 256 l 1
 192 320 l 1
 256 320 l 1
 256 384 l 1
 320 384 l 1
 320 448 l 1
 384 448 l 1
 384 512 l 1
 448 512 l 1
 448 576 l 1
 512 576 l 1
 512 640 l 1
 448 640 l 1
 384 640 l 1
 320 640 l 1
 256 640 l 1
 192 640 l 1
 128 640 l 1
 128 704 l 1
 128 768 l 1
EndSplineSet
Validated: 1
EndChar

StartChar: zero
Encoding: 48 48 26
Width: 768
Flags: H
LayerCount: 2
Fore
SplineSet
192 768 m 1
 256 768 l 1
 320 768 l 1
 384 768 l 1
 448 768 l 1
 512 768 l 1
 576 768 l 1
 576 704 l 1
 640 704 l 1
 640 640 l 1
 640 576 l 1
 640 512 l 1
 640 448 l 1
 640 384 l 1
 640 320 l 1
 640 256 l 1
 640 192 l 1
 640 128 l 1
 640 64 l 1
 576 64 l 1
 576 0 l 1
 512 0 l 1
 448 0 l 1
 384 0 l 1
 320 0 l 1
 256 0 l 1
 192 0 l 1
 192 64 l 1
 128 64 l 1
 128 128 l 1
 128 192 l 1
 128 256 l 1
 128 320 l 1
 128 384 l 1
 128 448 l 1
 128 512 l 1
 128 576 l 1
 128 640 l 1
 128 704 l 1
 192 704 l 1
 192 768 l 1
256 640 m 1
 256 576 l 1
 320 576 l 1
 320 512 l 1
 384 512 l 1
 384 448 l 1
 448 448 l 1
 448 384 l 1
 512 384 l 1
 512 448 l 1
 512 512 l 1
 512 576 l 1
 512 640 l 1
 448 640 l 1
 384 640 l 1
 320 640 l 1
 256 640 l 1
256 384 m 1
 256 320 l 1
 256 256 l 1
 256 192 l 1
 256 128 l 1
 320 128 l 1
 384 128 l 1
 448 128 l 1
 512 128 l 1
 512 192 l 1
 448 192 l 1
 448 256 l 1
 384 256 l 1
 384 320 l 1
 320 320 l 1
 320 384 l 1
 256 384 l 1
EndSplineSet
Validated: 1
EndChar

StartChar: one
Encoding: 49 49 27
Width: 768
Flags: H
LayerCount: 2
Fore
SplineSet
256 768 m 1
 320 768 l 1
 384 768 l 1
 448 768 l 1
 448 704 l 1
 448 640 l 1
 448 576 l 1
 448 512 l 1
 448 448 l 1
 448 384 l 1
 448 320 l 1
 448 256 l 1
 448 192 l 1
 448 128 l 1
 512 128 l 1
 576 128 l 1
 640 128 l 1
 640 64 l 1
 640 0 l 1
 576 0 l 1
 512 0 l 1
 448 0 l 1
 384 0 l 1
 320 0 l 1
 256 0 l 1
 192 0 l 1
 128 0 l 1
 128 64 l 1
 128 128 l 1
 192 128 l 1
 256 128 l 1
 320 128 l 1
 320 192 l 1
 320 256 l 1
 320 320 l 1
 320 384 l 1
 320 448 l 1
 320 512 l 1
 320 576 l 1
 256 576 l 1
 192 576 l 1
 128 576 l 1
 128 640 l 1
 192 640 l 1
 192 704 l 1
 256 704 l 1
 256 768 l 1
EndSplineSet
Validated: 1
EndChar

StartChar: two
Encoding: 50 50 28
Width: 768
Flags: H
LayerCount: 2
Fore
SplineSet
192 768 m 1
 256 768 l 1
 320 768 l 1
 384 768 l 1
 448 768 l 1
 512 768 l 1
 576 768 l 1
 576 704 l 1
 640 704 l 1
 640 640 l 1
 640 576 l 1
 640 512 l 1
 640 448 l 1
 576 448 l 1
 576 384 l 1
 512 384 l 1
 512 320 l 1
 448 320 l 1
 448 256 l 1
 384 256 l 1
 384 192 l 1
 320 192 l 1
 320 128 l 1
 384 128 l 1
 448 128 l 1
 512 128 l 1
 576 128 l 1
 640 128 l 1
 640 64 l 1
 640 0 l 1
 576 0 l 1
 512 0 l 1
 448 0 l 1
 384 0 l 1
 320 0 l 1
 256 0 l 1
 192 0 l 1
 128 0 l 1
 128 64 l 1
 128 128 l 1
 128 192 l 1
 192 192 l 1
 192 256 l 1
 256 256 l 1
 256 320 l 1
 320 320 l 1
 320 384 l 1
 384 384 l 1
 384 448 l 1
 448 448 l 1
 448 512 l 1
 512 512 l 1
 512 576 l 1
 512 640 l 1
 448 640 l 1
 384 640 l 1
 320 640 l 1
 256 640 l 1
 256 576 l 1
 192 576 l 1
 128 576 l 1
 128 640 l 1
 128 704 l 1
 192 704 l 1
 192 768 l 1
EndSplineSet
Validated: 1
EndChar

StartChar: three
Encoding: 51 51 29
Width: 768
Flags: H
LayerCount: 2
Fore
SplineSet
192 768 m 1
 256 768 l 1
 320 768 l 1
 384 768 l 1
 448 768 l 1
 512 768 l 1
 576 768 l 1
 576 704 l 1
 640 704 l 1
 640 640 l 1
 640 576 l 1
 640 512 l 1
 640 448 l 1
 576 448 l 1
 576 384 l 1
 576 320 l 1
 640 320 l 1
 640 256 l 1
 640 192 l 1
 640 128 l 1
 640 64 l 1
 576 64 l 1
 576 0 l 1
 512 0 l 1
 448 0 l 1
 384 0 l 1
 320 0 l 1
 256 0 l 1
 192 0 l 1
 192 64 l 1
 128 64 l 1
 128 128 l 1
 128 192 l 1
 192 192 l 1
 256 192 l 1
 256 128 l 1
 320 128 l 1
 384 128 l 1
 448 128 l 1
 512 128 l 1
 512 192 l 1
 512 256 l 1
 512 320 l 1
 448 320 l 1
 384 320 l 1
 320 320 l 1
 320 384 l 1
 320 448 l 1
 384 448 l 1
 448 448 l 1
 512 448 l 1
 512 512 l 1
 512 576 l 1
 512 640 l 1
 448 640 l 1
 384 640 l 1
 320 640 l 1
 256 640 l 1
 256 576 l 1
 192 576 l 1
 128 576 l 1
 128 640 l 1
 128 704 l 1
 192 704 l 1
 192 768 l 1
EndSplineSet
Validated: 1
EndChar

StartChar: four
Encoding: 52 52 30
Width: 768
Flags: H
LayerCount: 2
Fore
SplineSet
384 768 m 1
 448 768 l 1
 512 768 l 1
 576 768 l 1
 576 704 l 1
 576 640 l 1
 576 576 l 1
 576 512 l 1
 576 448 l 1
 640 448 l 1
 640 384 l 1
 640 320 l 1
 576 320 l 1
 576 256 l 1
 576 192 l 1
 576 128 l 1
 576 64 l 1
 576 0 l 1
 512 0 l 1
 448 0 l 1
 448 64 l 1
 448 128 l 1
 448 192 l 1
 448 256 l 1
 448 320 l 1
 384 320 l 1
 320 320 l 1
 256 320 l 1
 192 320 l 1
 128 320 l 1
 128 384 l 1
 128 448 l 1
 128 512 l 1
 192 512 l 1
 192 576 l 1
 256 576 l 1
 256 640 l 1
 320 640 l 1
 320 704 l 1
 384 704 l 1
 384 768 l 1
384 640 m 1
 384 576 l 1
 320 576 l 1
 320 512 l 1
 256 512 l 1
 256 448 l 1
 320 448 l 1
 384 448 l 1
 448 448 l 1
 448 512 l 1
 448 576 l 1
 448 640 l 1
 384 640 l 1
EndSplineSet
Validated: 1
EndChar

StartChar: five
Encoding: 53 53 31
Width: 768
Flags: H
LayerCount: 2
Fore
SplineSet
128 768 m 1
 192 768 l 1
 256 768 l 1
 320 768 l 1
 384 768 l 1
 448 768 l 1
 512 768 l 1
 576 768 l 1
 640 768 l 1
 640 704 l 1
 640 640 l 1
 576 640 l 1
 512 640 l 1
 448 640 l 1
 384 640 l 1
 320 640 l 1
 256 640 l 1
 256 576 l 1
 256 512 l 1
 256 448 l 1
 320 448 l 1
 384 448 l 1
 448 448 l 1
 512 448 l 1
 576 448 l 1
 576 384 l 1
 640 384 l 1
 640 320 l 1
 640 256 l 1
 640 192 l 1
 640 128 l 1
 640 64 l 1
 576 64 l 1
 576 0 l 1
 512 0 l 1
 448 0 l 1
 384 0 l 1
 320 0 l 1
 256 0 l 1
 192 0 l 1
 128 0 l 1
 128 64 l 1
 128 128 l 1
 192 128 l 1
 256 128 l 1
 320 128 l 1
 384 128 l 1
 448 128 l 1
 512 128 l 1
 512 192 l 1
 512 256 l 1
 512 320 l 1
 448 320 l 1
 384 320 l 1
 320 320 l 1
 256 320 l 1
 192 320 l 1
 128 320 l 1
 128 384 l 1
 128 448 l 1
 128 512 l 1
 128 576 l 1
 128 640 l 1
 128 704 l 1
 128 768 l 1
EndSplineSet
Validated: 1
EndChar

StartChar: six
Encoding: 54 54 32
Width: 768
Flags: H
LayerCount: 2
Fore
SplineSet
192 768 m 1
 256 768 l 1
 320 768 l 1
 384 768 l 1
 448 768 l 1
 512 768 l 1
 576 768 l 1
 576 704 l 1
 576 640 l 1
 512 640 l 1
 448 640 l 1
 384 640 l 1
 320 640 l 1
 256 640 l 1
 256 576 l 1
 256 512 l 1
 256 448 l 1
 320 448 l 1
 384 448 l 1
 448 448 l 1
 512 448 l 1
 576 448 l 1
 576 384 l 1
 640 384 l 1
 640 320 l 1
 640 256 l 1
 640 192 l 1
 640 128 l 1
 640 64 l 1
 576 64 l 1
 576 0 l 1
 512 0 l 1
 448 0 l 1
 384 0 l 1
 320 0 l 1
 256 0 l 1
 192 0 l 1
 192 64 l 1
 128 64 l 1
 128 128 l 1
 128 192 l 1
 128 256 l 1
 128 320 l 1
 128 384 l 1
 128 448 l 1
 128 512 l 1
 128 576 l 1
 128 640 l 1
 128 704 l 1
 192 704 l 1
 192 768 l 1
256 320 m 1
 256 256 l 1
 256 192 l 1
 256 128 l 1
 320 128 l 1
 384 128 l 1
 448 128 l 1
 512 128 l 1
 512 192 l 1
 512 256 l 1
 512 320 l 1
 448 320 l 1
 384 320 l 1
 320 320 l 1
 256 320 l 1
EndSplineSet
Validated: 1
EndChar

StartChar: seven
Encoding: 55 55 33
Width: 768
Flags: H
LayerCount: 2
Fore
SplineSet
128 768 m 1
 192 768 l 1
 256 768 l 1
 320 768 l 1
 384 768 l 1
 448 768 l 1
 512 768 l 1
 576 768 l 1
 640 768 l 1
 640 704 l 1
 640 640 l 1
 640 576 l 1
 640 512 l 1
 640 448 l 1
 576 448 l 1
 576 384 l 1
 576 320 l 1
 512 320 l 1
 512 256 l 1
 512 192 l 1
 448 192 l 1
 448 128 l 1
 448 64 l 1
 384 64 l 1
 384 0 l 1
 320 0 l 1
 256 0 l 1
 256 64 l 1
 256 128 l 1
 320 128 l 1
 320 192 l 1
 320 256 l 1
 384 256 l 1
 384 320 l 1
 384 384 l 1
 448 384 l 1
 448 448 l 1
 448 512 l 1
 512 512 l 1
 512 576 l 1
 512 640 l 1
 448 640 l 1
 384 640 l 1
 320 640 l 1
 256 640 l 1
 192 640 l 1
 128 640 l 1
 128 704 l 1
 128 768 l 1
EndSplineSet
Validated: 1
EndChar

StartChar: eight
Encoding: 56 56 34
Width: 768
Flags: H
LayerCount: 2
Fore
SplineSet
192 768 m 1
 256 768 l 1
 320 768 l 1
 384 768 l 1
 448 768 l 1
 512 768 l 1
 576 768 l 1
 576 704 l 1
 640 704 l 1
 640 640 l 1
 640 576 l 1
 640 512 l 1
 640 448 l 1
 576 448 l 1
 576 384 l 1
 576 320 l 1
 640 320 l 1
 640 256 l 1
 640 192 l 1
 640 128 l 1
 640 64 l 1
 576 64 l 1
 576 0 l 1
 512 0 l 1
 448 0 l 1
 384 0 l 1
 320 0 l 1
 256 0 l 1
 192 0 l 1
 192 64 l 1
 128 64 l 1
 128 128 l 1
 128 192 l 1
 128 256 l 1
 128 320 l 1
 192 320 l 1
 192 384 l 1
 192 448 l 1
 128 448 l 1
 128 512 l 1
 128 576 l 1
 128 640 l 1
 128 704 l 1
 192 704 l 1
 192 768 l 1
256 640 m 1
 256 576 l 1
 256 512 l 1
 256 448 l 1
 320 448 l 1
 384 448 l 1
 448 448 l 1
 512 448 l 1
 512 512 l 1
 512 576 l 1
 512 640 l 1
 448 640 l 1
 384 640 l 1
 320 640 l 1
 256 640 l 1
256 320 m 1
 256 256 l 1
 256 192 l 1
 256 128 l 1
 320 128 l 1
 384 128 l 1
 448 128 l 1
 512 128 l 1
 512 192 l 1
 512 256 l 1
 512 320 l 1
 448 320 l 1
 384 320 l 1
 320 320 l 1
 256 320 l 1
EndSplineSet
Validated: 1
EndChar

StartChar: nine
Encoding: 57 57 35
Width: 768
Flags: H
LayerCount: 2
Fore
SplineSet
192 768 m 1
 256 768 l 1
 320 768 l 1
 384 768 l 1
 448 768 l 1
 512 768 l 1
 576 768 l 1
 576 704 l 1
 640 704 l 1
 640 640 l 1
 640 576 l 1
 640 512 l 1
 640 448 l 1
 640 384 l 1
 640 320 l 1
 640 256 l 1
 640 192 l 1
 640 128 l 1
 640 64 l 1
 576 64 l 1
 576 0 l 1
 512 0 l 1
 448 0 l 1
 384 0 l 1
 320 0 l 1
 256 0 l 1
 192 0 l 1
 192 64 l 1
 192 128 l 1
 256 128 l 1
 320 128 l 1
 384 128 l 1
 448 128 l 1
 512 128 l 1
 512 192 l 1
 512 256 l 1
 512 320 l 1
 448 320 l 1
 384 320 l 1
 320 320 l 1
 256 320 l 1
 192 320 l 1
 192 384 l 1
 128 384 l 1
 128 448 l 1
 128 512 l 1
 128 576 l 1
 128 640 l 1
 128 704 l 1
 192 704 l 1
 192 768 l 1
256 640 m 1
 256 576 l 1
 256 512 l 1
 256 448 l 1
 320 448 l 1
 384 448 l 1
 448 448 l 1
 512 448 l 1
 512 512 l 1
 512 576 l 1
 512 640 l 1
 448 640 l 1
 384 640 l 1
 320 640 l 1
 256 640 l 1
EndSplineSet
Validated: 1
EndChar

StartChar: underscore
Encoding: 95 95 36
Width: 768
Flags: H
LayerCount: 2
Fore
SplineSet
128 128 m 1
 192 128 l 1
 256 128 l 1
 320 128 l 1
 384 128 l 1
 448 128 l 1
 512 128 l 1
 576 128 l 1
 640 128 l 1
 640 64 l 1
 640 0 l 1
 576 0 l 1
 512 0 l 1
 448 0 l 1
 384 0 l 1
 320 0 l 1
 256 0 l 1
 192 0 l 1
 128 0 l 1
 128 64 l 1
 128 128 l 1
EndSplineSet
Validated: 1
EndChar

StartChar: bracketleft
Encoding: 91 91 38
Width: 768
Flags: H
LayerCount: 2
Fore
SplineSet
256 768 m 1
 320 768 l 1
 384 768 l 1
 448 768 l 1
 512 768 l 1
 512 704 l 1
 512 640 l 1
 448 640 l 1
 384 640 l 1
 384 576 l 1
 384 512 l 1
 384 448 l 1
 384 384 l 1
 384 320 l 1
 384 256 l 1
 384 192 l 1
 384 128 l 1
 448 128 l 1
 512 128 l 1
 512 64 l 1
 512 0 l 1
 448 0 l 1
 384 0 l 1
 320 0 l 1
 256 0 l 1
 256 64 l 1
 256 128 l 1
 256 192 l 1
 256 256 l 1
 256 320 l 1
 256 384 l 1
 256 448 l 1
 256 512 l 1
 256 576 l 1
 256 640 l 1
 256 704 l 1
 256 768 l 1
EndSplineSet
Validated: 1
EndChar

StartChar: bracketright
Encoding: 93 93 39
Width: 768
Flags: H
LayerCount: 2
Fore
SplineSet
256 768 m 1
 320 768 l 1
 384 768 l 1
 448 768 l 1
 512 768 l 1
 512 704 l 1
 512 640 l 1
 512 576 l 1
 512 512 l 1
 512 448 l 1
 512 384 l 1
 512 320 l 1
 512 256 l 1
 512 192 l 1
 512 128 l 1
 512 64 l 1
 512 0 l 1
 448 0 l 1
 384 0 l 1
 320 0 l 1
 256 0 l 1
 256 64 l 1
 256 128 l 1
 320 128 l 1
 384 128 l 1
 384 192 l 1
 384 256 l 1
 384 320 l 1
 384 384 l 1
 384 448 l 1
 384 512 l 1
 384 576 l 1
 384 640 l 1
 320 640 l 1
 256 640 l 1
 256 704 l 1
 256 768 l 1
EndSplineSet
Validated: 1
EndChar

StartChar: asciicircum
Encoding: 94 94 40
Width: 768
Flags: H
LayerCount: 2
Fore
SplineSet
320 768 m 1
 384 768 l 1
 448 768 l 1
 448 704 l 1
 512 704 l 1
 512 640 l 1
 576 640 l 1
 576 576 l 1
 640 576 l 1
 640 512 l 1
 640 448 l 1
 576 448 l 1
 512 448 l 1
 512 512 l 1
 448 512 l 1
 448 576 l 1
 384 576 l 1
 320 576 l 1
 320 512 l 1
 256 512 l 1
 256 448 l 1
 192 448 l 1
 128 448 l 1
 128 512 l 1
 128 576 l 1
 192 576 l 1
 192 640 l 1
 256 640 l 1
 256 704 l 1
 320 704 l 1
 320 768 l 1
EndSplineSet
Validated: 1
EndChar

StartChar: question
Encoding: 63 63 41
Width: 768
Flags: H
LayerCount: 2
Fore
SplineSet
192 768 m 1
 256 768 l 1
 320 768 l 1
 384 768 l 1
 448 768 l 1
 512 768 l 1
 576 768 l 1
 576 704 l 1
 640 704 l 1
 640 640 l 1
 640 576 l 1
 640 512 l 1
 640 448 l 1
 640 384 l 1
 576 384 l 1
 576 320 l 1
 512 320 l 1
 512 256 l 1
 448 256 l 1
 448 192 l 1
 384 192 l 1
 320 192 l 1
 320 256 l 1
 320 320 l 1
 384 320 l 1
 384 384 l 1
 448 384 l 1
 448 448 l 1
 512 448 l 1
 512 512 l 1
 512 576 l 1
 512 640 l 1
 448 640 l 1
 384 640 l 1
 320 640 l 1
 256 640 l 1
 256 576 l 1
 192 576 l 1
 128 576 l 1
 128 640 l 1
 128 704 l 1
 192 704 l 1
 192 768 l 1
320 128 m 1
 384 128 l 1
 448 128 l 1
 448 64 l 1
 448 0 l 1
 384 0 l 1
 320 0 l 1
 320 64 l 1
 320 128 l 1
EndSplineSet
Validated: 1
EndChar

StartChar: at
Encoding: 64 64 42
Width: 768
Flags: H
LayerCount: 2
Fore
SplineSet
128 576 m 1
 192 576 l 1
 256 576 l 1
 320 576 l 1
 384 576 l 1
 448 576 l 1
 512 576 l 1
 576 576 l 1
 640 576 l 1
 640 512 l 1
 640 448 l 1
 640 384 l 1
 640 320 l 1
 640 256 l 1
 640 192 l 1
 640 128 l 1
 576 128 l 1
 512 128 l 1
 448 128 l 1
 384 128 l 1
 320 128 l 1
 320 192 l 1
 384 192 l 1
 448 192 l 1
 448 256 l 1
 448 320 l 1
 448 384 l 1
 384 384 l 1
 320 384 l 1
 320 448 l 1
 384 448 l 1
 448 448 l 1
 512 448 l 1
 512 384 l 1
 512 320 l 1
 512 256 l 1
 512 192 l 1
 576 192 l 1
 576 256 l 1
 576 320 l 1
 576 384 l 1
 576 448 l 1
 576 512 l 1
 512 512 l 1
 448 512 l 1
 384 512 l 1
 320 512 l 1
 256 512 l 1
 192 512 l 1
 192 448 l 1
 192 384 l 1
 192 320 l 1
 192 256 l 1
 192 192 l 1
 192 128 l 1
 192 64 l 1
 256 64 l 1
 320 64 l 1
 384 64 l 1
 448 64 l 1
 512 64 l 1
 576 64 l 1
 640 64 l 1
 640 0 l 1
 576 0 l 1
 512 0 l 1
 448 0 l 1
 384 0 l 1
 320 0 l 1
 256 0 l 1
 192 0 l 1
 128 0 l 1
 128 64 l 1
 128 128 l 1
 128 192 l 1
 128 256 l 1
 128 320 l 1
 128 384 l 1
 128 448 l 1
 128 512 l 1
 128 576 l 1
320 192 m 1
 256 192 l 1
 256 256 l 1
 256 320 l 1
 256 384 l 1
 320 384 l 1
 320 320 l 1
 320 256 l 1
 320 192 l 1
EndSplineSet
Validated: 5
EndChar

StartChar: colon
Encoding: 58 58 43
Width: 768
Flags: H
LayerCount: 2
Fore
SplineSet
320 640 m 1
 384 640 l 1
 448 640 l 1
 448 576 l 1
 448 512 l 1
 384 512 l 1
 320 512 l 1
 320 576 l 1
 320 640 l 1
320 256 m 1
 384 256 l 1
 448 256 l 1
 448 192 l 1
 448 128 l 1
 384 128 l 1
 320 128 l 1
 320 192 l 1
 320 256 l 1
EndSplineSet
Validated: 1
EndChar

StartChar: semicolon
Encoding: 59 59 44
Width: 768
Flags: H
LayerCount: 2
Fore
SplineSet
320 640 m 1
 384 640 l 1
 448 640 l 1
 448 576 l 1
 448 512 l 1
 384 512 l 1
 320 512 l 1
 320 576 l 1
 320 640 l 1
320 256 m 1
 384 256 l 1
 448 256 l 1
 448 192 l 1
 448 128 l 1
 448 64 l 1
 448 0 l 1
 384 0 l 1
 320 0 l 1
 320 64 l 1
 320 128 l 1
 320 192 l 1
 320 256 l 1
EndSplineSet
Validated: 1
EndChar

StartChar: less
Encoding: 60 60 45
Width: 768
Flags: H
LayerCount: 2
Fore
SplineSet
448 768 m 1
 512 768 l 1
 576 768 l 1
 640 768 l 1
 640 704 l 1
 576 704 l 1
 576 640 l 1
 512 640 l 1
 512 576 l 1
 448 576 l 1
 448 512 l 1
 384 512 l 1
 384 448 l 1
 320 448 l 1
 320 384 l 1
 320 320 l 1
 384 320 l 1
 384 256 l 1
 448 256 l 1
 448 192 l 1
 512 192 l 1
 512 128 l 1
 576 128 l 1
 576 64 l 1
 640 64 l 1
 640 0 l 1
 576 0 l 1
 512 0 l 1
 448 0 l 1
 448 64 l 1
 384 64 l 1
 384 128 l 1
 320 128 l 1
 320 192 l 1
 256 192 l 1
 256 256 l 1
 192 256 l 1
 192 320 l 1
 128 320 l 1
 128 384 l 1
 128 448 l 1
 192 448 l 1
 192 512 l 1
 256 512 l 1
 256 576 l 1
 320 576 l 1
 320 640 l 1
 384 640 l 1
 384 704 l 1
 448 704 l 1
 448 768 l 1
EndSplineSet
Validated: 1
EndChar

StartChar: equal
Encoding: 61 61 46
Width: 768
Flags: H
LayerCount: 2
Fore
SplineSet
128 576 m 1
 192 576 l 1
 256 576 l 1
 320 576 l 1
 384 576 l 1
 448 576 l 1
 512 576 l 1
 576 576 l 1
 640 576 l 1
 640 512 l 1
 640 448 l 1
 576 448 l 1
 512 448 l 1
 448 448 l 1
 384 448 l 1
 320 448 l 1
 256 448 l 1
 192 448 l 1
 128 448 l 1
 128 512 l 1
 128 576 l 1
128 320 m 1
 192 320 l 1
 256 320 l 1
 320 320 l 1
 384 320 l 1
 448 320 l 1
 512 320 l 1
 576 320 l 1
 640 320 l 1
 640 256 l 1
 640 192 l 1
 576 192 l 1
 512 192 l 1
 448 192 l 1
 384 192 l 1
 320 192 l 1
 256 192 l 1
 192 192 l 1
 128 192 l 1
 128 256 l 1
 128 320 l 1
EndSplineSet
Validated: 1
EndChar

StartChar: greater
Encoding: 62 62 47
Width: 768
Flags: H
LayerCount: 2
Fore
SplineSet
128 768 m 1
 192 768 l 1
 256 768 l 1
 320 768 l 1
 320 704 l 1
 384 704 l 1
 384 640 l 1
 448 640 l 1
 448 576 l 1
 512 576 l 1
 512 512 l 1
 576 512 l 1
 576 448 l 1
 640 448 l 1
 640 384 l 1
 640 320 l 1
 576 320 l 1
 576 256 l 1
 512 256 l 1
 512 192 l 1
 448 192 l 1
 448 128 l 1
 384 128 l 1
 384 64 l 1
 320 64 l 1
 320 0 l 1
 256 0 l 1
 192 0 l 1
 128 0 l 1
 128 64 l 1
 192 64 l 1
 192 128 l 1
 256 128 l 1
 256 192 l 1
 320 192 l 1
 320 256 l 1
 384 256 l 1
 384 320 l 1
 448 320 l 1
 448 384 l 1
 448 448 l 1
 384 448 l 1
 384 512 l 1
 320 512 l 1
 320 576 l 1
 256 576 l 1
 256 640 l 1
 192 640 l 1
 192 704 l 1
 128 704 l 1
 128 768 l 1
EndSplineSet
Validated: 1
EndChar

StartChar: hyphen
Encoding: 45 45 48
Width: 768
Flags: H
LayerCount: 2
Fore
SplineSet
128 448 m 1
 192 448 l 1
 256 448 l 1
 320 448 l 1
 384 448 l 1
 448 448 l 1
 512 448 l 1
 576 448 l 1
 640 448 l 1
 640 384 l 1
 640 320 l 1
 576 320 l 1
 512 320 l 1
 448 320 l 1
 384 320 l 1
 320 320 l 1
 256 320 l 1
 192 320 l 1
 128 320 l 1
 128 384 l 1
 128 448 l 1
EndSplineSet
Validated: 1
EndChar

StartChar: period
Encoding: 46 46 49
Width: 768
Flags: H
LayerCount: 2
Fore
SplineSet
320 128 m 1
 384 128 l 1
 448 128 l 1
 448 64 l 1
 448 0 l 1
 384 0 l 1
 320 0 l 1
 320 64 l 1
 320 128 l 1
EndSplineSet
Validated: 1
EndChar

StartChar: plus
Encoding: 43 43 50
Width: 768
Flags: H
LayerCount: 2
Fore
SplineSet
320 640 m 1
 384 640 l 1
 448 640 l 1
 448 576 l 1
 448 512 l 1
 448 448 l 1
 512 448 l 1
 576 448 l 1
 640 448 l 1
 640 384 l 1
 640 320 l 1
 576 320 l 1
 512 320 l 1
 448 320 l 1
 448 256 l 1
 448 192 l 1
 448 128 l 1
 384 128 l 1
 320 128 l 1
 320 192 l 1
 320 256 l 1
 320 320 l 1
 256 320 l 1
 192 320 l 1
 128 320 l 1
 128 384 l 1
 128 448 l 1
 192 448 l 1
 256 448 l 1
 320 448 l 1
 320 512 l 1
 320 576 l 1
 320 640 l 1
EndSplineSet
Validated: 1
EndChar

StartChar: parenright
Encoding: 41 41 51
Width: 768
Flags: H
LayerCount: 2
Fore
SplineSet
256 768 m 1
 320 768 l 1
 384 768 l 1
 384 704 l 1
 448 704 l 1
 448 640 l 1
 512 640 l 1
 512 576 l 1
 512 512 l 1
 512 448 l 1
 512 384 l 1
 512 320 l 1
 512 256 l 1
 512 192 l 1
 512 128 l 1
 448 128 l 1
 448 64 l 1
 384 64 l 1
 384 0 l 1
 320 0 l 1
 256 0 l 1
 256 64 l 1
 256 128 l 1
 320 128 l 1
 320 192 l 1
 384 192 l 1
 384 256 l 1
 384 320 l 1
 384 384 l 1
 384 448 l 1
 384 512 l 1
 384 576 l 1
 320 576 l 1
 320 640 l 1
 256 640 l 1
 256 704 l 1
 256 768 l 1
EndSplineSet
Validated: 1
EndChar

StartChar: parenleft
Encoding: 40 40 52
Width: 768
Flags: H
LayerCount: 2
Fore
SplineSet
384 768 m 1
 448 768 l 1
 512 768 l 1
 512 704 l 1
 512 640 l 1
 448 640 l 1
 448 576 l 1
 384 576 l 1
 384 512 l 1
 384 448 l 1
 384 384 l 1
 384 320 l 1
 384 256 l 1
 384 192 l 1
 448 192 l 1
 448 128 l 1
 512 128 l 1
 512 64 l 1
 512 0 l 1
 448 0 l 1
 384 0 l 1
 384 64 l 1
 320 64 l 1
 320 128 l 1
 256 128 l 1
 256 192 l 1
 256 256 l 1
 256 320 l 1
 256 384 l 1
 256 448 l 1
 256 512 l 1
 256 576 l 1
 256 640 l 1
 320 640 l 1
 320 704 l 1
 384 704 l 1
 384 768 l 1
EndSplineSet
Validated: 1
EndChar

StartChar: quotesingle
Encoding: 39 39 53
Width: 768
Flags: H
LayerCount: 2
Fore
SplineSet
320 768 m 1
 384 768 l 1
 448 768 l 1
 448 704 l 1
 448 640 l 1
 448 576 l 1
 448 512 l 1
 384 512 l 1
 320 512 l 1
 320 576 l 1
 320 640 l 1
 320 704 l 1
 320 768 l 1
EndSplineSet
Validated: 1
EndChar

StartChar: asciitilde
Encoding: 126 126 54
Width: 768
Flags: H
LayerCount: 2
Fore
SplineSet
192 512 m 1
 256 512 l 1
 320 512 l 1
 320 448 l 1
 384 448 l 1
 448 448 l 1
 448 384 l 1
 512 384 l 1
 576 384 l 1
 576 448 l 1
 640 448 l 1
 640 384 l 1
 640 320 l 1
 576 320 l 1
 576 256 l 1
 512 256 l 1
 448 256 l 1
 384 256 l 1
 384 320 l 1
 320 320 l 1
 320 384 l 1
 256 384 l 1
 192 384 l 1
 192 320 l 1
 128 320 l 1
 128 384 l 1
 128 448 l 1
 192 448 l 1
 192 512 l 1
EndSplineSet
Validated: 1
EndChar

StartChar: bar
Encoding: 124 124 55
Width: 768
Flags: H
LayerCount: 2
Fore
SplineSet
320 768 m 1
 384 768 l 1
 448 768 l 1
 448 704 l 1
 448 640 l 1
 448 576 l 1
 448 512 l 1
 448 448 l 1
 448 384 l 1
 448 320 l 1
 448 256 l 1
 448 192 l 1
 448 128 l 1
 448 64 l 1
 448 0 l 1
 384 0 l 1
 320 0 l 1
 320 64 l 1
 320 128 l 1
 320 192 l 1
 320 256 l 1
 320 320 l 1
 320 384 l 1
 320 448 l 1
 320 512 l 1
 320 576 l 1
 320 640 l 1
 320 704 l 1
 320 768 l 1
EndSplineSet
Validated: 1
EndChar

StartChar: registered
Encoding: 174 174 56
Width: 768
Flags: H
LayerCount: 2
Fore
SplineSet
128 640 m 1
 192 640 l 1
 256 640 l 1
 320 640 l 1
 384 640 l 1
 448 640 l 1
 512 640 l 1
 576 640 l 1
 640 640 l 1
 640 576 l 1
 640 512 l 1
 640 448 l 1
 640 384 l 1
 640 320 l 1
 640 256 l 1
 640 192 l 1
 640 128 l 1
 576 128 l 1
 512 128 l 1
 448 128 l 1
 384 128 l 1
 320 128 l 1
 256 128 l 1
 192 128 l 1
 128 128 l 1
 128 192 l 1
 128 256 l 1
 128 320 l 1
 128 384 l 1
 128 448 l 1
 128 512 l 1
 128 576 l 1
 128 640 l 1
192 576 m 1
 192 512 l 1
 192 448 l 1
 192 384 l 1
 192 320 l 1
 192 256 l 1
 192 192 l 1
 256 192 l 1
 320 192 l 1
 384 192 l 1
 448 192 l 1
 512 192 l 1
 576 192 l 1
 576 256 l 1
 576 320 l 1
 576 384 l 1
 576 448 l 1
 576 512 l 1
 576 576 l 1
 512 576 l 1
 448 576 l 1
 384 576 l 1
 320 576 l 1
 256 576 l 1
 192 576 l 1
256 512 m 1
 320 512 l 1
 384 512 l 1
 448 512 l 1
 448 448 l 1
 448 384 l 1
 384 384 l 1
 384 448 l 1
 320 448 l 1
 320 384 l 1
 384 384 l 1
 384 320 l 1
 320 320 l 1
 320 256 l 1
 256 256 l 1
 256 320 l 1
 256 384 l 1
 256 448 l 1
 256 512 l 1
384 320 m 1
 448 320 l 1
 448 256 l 1
 384 256 l 1
 384 320 l 1
EndSplineSet
Validated: 5
EndChar

StartChar: copyright
Encoding: 169 169 57
Width: 768
Flags: H
LayerCount: 2
Fore
SplineSet
128 640 m 1
 192 640 l 1
 256 640 l 1
 320 640 l 1
 384 640 l 1
 448 640 l 1
 512 640 l 1
 576 640 l 1
 640 640 l 1
 640 576 l 1
 640 512 l 1
 640 448 l 1
 640 384 l 1
 640 320 l 1
 640 256 l 1
 640 192 l 1
 640 128 l 1
 576 128 l 1
 512 128 l 1
 448 128 l 1
 384 128 l 1
 320 128 l 1
 256 128 l 1
 192 128 l 1
 128 128 l 1
 128 192 l 1
 128 256 l 1
 128 320 l 1
 128 384 l 1
 128 448 l 1
 128 512 l 1
 128 576 l 1
 128 640 l 1
192 576 m 1
 192 512 l 1
 192 448 l 1
 192 384 l 1
 192 320 l 1
 192 256 l 1
 192 192 l 1
 256 192 l 1
 320 192 l 1
 384 192 l 1
 448 192 l 1
 512 192 l 1
 576 192 l 1
 576 256 l 1
 576 320 l 1
 576 384 l 1
 576 448 l 1
 576 512 l 1
 576 576 l 1
 512 576 l 1
 448 576 l 1
 384 576 l 1
 320 576 l 1
 256 576 l 1
 192 576 l 1
256 512 m 1
 320 512 l 1
 384 512 l 1
 448 512 l 1
 512 512 l 1
 512 448 l 1
 448 448 l 1
 384 448 l 1
 320 448 l 1
 320 384 l 1
 320 320 l 1
 384 320 l 1
 448 320 l 1
 512 320 l 1
 512 256 l 1
 448 256 l 1
 384 256 l 1
 320 256 l 1
 256 256 l 1
 256 320 l 1
 256 384 l 1
 256 448 l 1
 256 512 l 1
EndSplineSet
Validated: 1
EndChar

StartChar: mu
Encoding: 181 181 58
Width: 768
Flags: H
LayerCount: 2
Fore
SplineSet
128 640 m 1
 192 640 l 1
 256 640 l 1
 256 576 l 1
 256 512 l 1
 256 448 l 1
 256 384 l 1
 256 320 l 1
 256 256 l 1
 320 256 l 1
 384 256 l 1
 448 256 l 1
 512 256 l 1
 512 320 l 1
 512 384 l 1
 512 448 l 1
 512 512 l 1
 512 576 l 1
 512 640 l 1
 576 640 l 1
 640 640 l 1
 640 576 l 1
 640 512 l 1
 640 448 l 1
 640 384 l 1
 640 320 l 1
 640 256 l 1
 640 192 l 1
 576 192 l 1
 576 128 l 1
 512 128 l 1
 448 128 l 1
 384 128 l 1
 320 128 l 1
 256 128 l 1
 256 64 l 1
 256 0 l 1
 192 0 l 1
 128 0 l 1
 128 64 l 1
 128 128 l 1
 128 192 l 1
 128 256 l 1
 128 320 l 1
 128 384 l 1
 128 448 l 1
 128 512 l 1
 128 576 l 1
 128 640 l 1
EndSplineSet
Validated: 1
EndChar

StartChar: exclam
Encoding: 33 33 59
Width: 768
Flags: H
LayerCount: 2
Fore
SplineSet
320 768 m 1
 384 768 l 1
 448 768 l 1
 448 704 l 1
 448 640 l 1
 448 576 l 1
 448 512 l 1
 448 448 l 1
 448 384 l 1
 448 320 l 1
 448 256 l 1
 448 192 l 1
 384 192 l 1
 320 192 l 1
 320 256 l 1
 320 320 l 1
 320 384 l 1
 320 448 l 1
 320 512 l 1
 320 576 l 1
 320 640 l 1
 320 704 l 1
 320 768 l 1
320 128 m 1
 384 128 l 1
 448 128 l 1
 448 64 l 1
 448 0 l 1
 384 0 l 1
 320 0 l 1
 320 64 l 1
 320 128 l 1
EndSplineSet
Validated: 1
EndChar

StartChar: quotedbl
Encoding: 34 34 60
Width: 768
Flags: H
LayerCount: 2
Fore
SplineSet
192 768 m 1
 256 768 l 1
 320 768 l 1
 320 704 l 1
 320 640 l 1
 320 576 l 1
 320 512 l 1
 256 512 l 1
 192 512 l 1
 192 576 l 1
 192 640 l 1
 192 704 l 1
 192 768 l 1
448 768 m 1
 512 768 l 1
 576 768 l 1
 576 704 l 1
 576 640 l 1
 576 576 l 1
 576 512 l 1
 512 512 l 1
 448 512 l 1
 448 576 l 1
 448 640 l 1
 448 704 l 1
 448 768 l 1
EndSplineSet
Validated: 1
EndChar

StartChar: numbersign
Encoding: 35 35 61
Width: 768
Flags: H
LayerCount: 2
Fore
SplineSet
192 768 m 1
 256 768 l 1
 320 768 l 1
 320 704 l 1
 320 640 l 1
 320 576 l 1
 384 576 l 1
 448 576 l 1
 448 640 l 1
 448 704 l 1
 448 768 l 1
 512 768 l 1
 576 768 l 1
 576 704 l 1
 576 640 l 1
 576 576 l 1
 640 576 l 1
 640 512 l 1
 640 448 l 1
 576 448 l 1
 576 384 l 1
 576 320 l 1
 640 320 l 1
 640 256 l 1
 640 192 l 1
 576 192 l 1
 576 128 l 1
 576 64 l 1
 576 0 l 1
 512 0 l 1
 448 0 l 1
 448 64 l 1
 448 128 l 1
 448 192 l 1
 384 192 l 1
 320 192 l 1
 320 128 l 1
 320 64 l 1
 320 0 l 1
 256 0 l 1
 192 0 l 1
 192 64 l 1
 192 128 l 1
 192 192 l 1
 128 192 l 1
 128 256 l 1
 128 320 l 1
 192 320 l 1
 192 384 l 1
 192 448 l 1
 128 448 l 1
 128 512 l 1
 128 576 l 1
 192 576 l 1
 192 640 l 1
 192 704 l 1
 192 768 l 1
320 448 m 1
 320 384 l 1
 320 320 l 1
 384 320 l 1
 448 320 l 1
 448 384 l 1
 448 448 l 1
 384 448 l 1
 320 448 l 1
EndSplineSet
Validated: 1
EndChar

StartChar: percent
Encoding: 37 37 62
Width: 768
Flags: H
LayerCount: 2
Fore
SplineSet
128 768 m 1
 192 768 l 1
 256 768 l 1
 320 768 l 1
 320 704 l 1
 320 640 l 1
 320 576 l 1
 320 512 l 1
 256 512 l 1
 192 512 l 1
 128 512 l 1
 128 576 l 1
 128 640 l 1
 128 704 l 1
 128 768 l 1
512 768 m 1
 576 768 l 1
 640 768 l 1
 640 704 l 1
 640 640 l 1
 640 576 l 1
 640 512 l 1
 576 512 l 1
 576 448 l 1
 512 448 l 1
 512 384 l 1
 448 384 l 1
 448 320 l 1
 384 320 l 1
 384 256 l 1
 320 256 l 1
 320 192 l 1
 256 192 l 1
 256 128 l 1
 256 64 l 1
 256 0 l 1
 192 0 l 1
 128 0 l 1
 128 64 l 1
 128 128 l 1
 128 192 l 1
 128 256 l 1
 192 256 l 1
 192 320 l 1
 256 320 l 1
 256 384 l 1
 320 384 l 1
 320 448 l 1
 384 448 l 1
 384 512 l 1
 448 512 l 1
 448 576 l 1
 512 576 l 1
 512 640 l 1
 512 704 l 1
 512 768 l 1
192 704 m 1
 192 640 l 1
 192 576 l 1
 256 576 l 1
 256 640 l 1
 256 704 l 1
 192 704 l 1
448 256 m 1
 512 256 l 1
 576 256 l 1
 640 256 l 1
 640 192 l 1
 640 128 l 1
 640 64 l 1
 640 0 l 1
 576 0 l 1
 512 0 l 1
 448 0 l 1
 448 64 l 1
 448 128 l 1
 448 192 l 1
 448 256 l 1
512 192 m 1
 512 128 l 1
 512 64 l 1
 576 64 l 1
 576 128 l 1
 576 192 l 1
 512 192 l 1
EndSplineSet
Validated: 1
EndChar

StartChar: dollar
Encoding: 36 36 63
Width: 768
Flags: H
LayerCount: 2
Fore
SplineSet
320 768 m 1
 384 768 l 1
 448 768 l 1
 448 704 l 1
 512 704 l 1
 576 704 l 1
 576 640 l 1
 640 640 l 1
 640 576 l 1
 576 576 l 1
 512 576 l 1
 448 576 l 1
 448 512 l 1
 448 448 l 1
 512 448 l 1
 576 448 l 1
 576 384 l 1
 640 384 l 1
 640 320 l 1
 640 256 l 1
 640 192 l 1
 640 128 l 1
 576 128 l 1
 576 64 l 1
 512 64 l 1
 448 64 l 1
 448 0 l 1
 384 0 l 1
 320 0 l 1
 320 64 l 1
 256 64 l 1
 192 64 l 1
 192 128 l 1
 128 128 l 1
 128 192 l 1
 192 192 l 1
 256 192 l 1
 320 192 l 1
 320 256 l 1
 320 320 l 1
 256 320 l 1
 192 320 l 1
 192 384 l 1
 128 384 l 1
 128 448 l 1
 128 512 l 1
 128 576 l 1
 128 640 l 1
 192 640 l 1
 192 704 l 1
 256 704 l 1
 320 704 l 1
 320 768 l 1
256 576 m 1
 256 512 l 1
 256 448 l 1
 320 448 l 1
 320 512 l 1
 320 576 l 1
 256 576 l 1
448 320 m 1
 448 256 l 1
 448 192 l 1
 512 192 l 1
 512 256 l 1
 512 320 l 1
 448 320 l 1
EndSplineSet
Validated: 1
EndChar

StartChar: comma
Encoding: 44 44 64
Width: 768
Flags: H
LayerCount: 2
Fore
SplineSet
320 256 m 1
 384 256 l 1
 448 256 l 1
 448 192 l 1
 448 128 l 1
 448 64 l 1
 448 0 l 1
 384 0 l 1
 320 0 l 1
 320 64 l 1
 320 128 l 1
 320 192 l 1
 320 256 l 1
EndSplineSet
Validated: 1
EndChar

StartChar: a
Encoding: 97 97 65
Width: 768
Flags: H
LayerCount: 2
Fore
SplineSet
192 512 m 1
 256 512 l 1
 320 512 l 1
 384 512 l 1
 448 512 l 1
 512 512 l 1
 576 512 l 1
 576 448 l 1
 640 448 l 1
 640 384 l 1
 640 320 l 1
 640 256 l 1
 640 192 l 1
 640 128 l 1
 640 64 l 1
 640 0 l 1
 576 0 l 1
 512 0 l 1
 448 0 l 1
 384 0 l 1
 320 0 l 1
 256 0 l 1
 192 0 l 1
 192 64 l 1
 128 64 l 1
 128 128 l 1
 128 192 l 1
 128 256 l 1
 128 320 l 1
 128 384 l 1
 128 448 l 1
 192 448 l 1
 192 512 l 1
256 384 m 1
 256 320 l 1
 256 256 l 1
 256 192 l 1
 256 128 l 1
 320 128 l 1
 384 128 l 1
 448 128 l 1
 512 128 l 1
 512 192 l 1
 512 256 l 1
 512 320 l 1
 512 384 l 1
 448 384 l 1
 384 384 l 1
 320 384 l 1
 256 384 l 1
EndSplineSet
Validated: 1
EndChar

StartChar: b
Encoding: 98 98 66
Width: 768
Flags: H
LayerCount: 2
Fore
SplineSet
128 768 m 1
 192 768 l 1
 256 768 l 1
 256 704 l 1
 256 640 l 1
 256 576 l 1
 256 512 l 1
 320 512 l 1
 384 512 l 1
 448 512 l 1
 512 512 l 1
 576 512 l 1
 576 448 l 1
 640 448 l 1
 640 384 l 1
 640 320 l 1
 640 256 l 1
 640 192 l 1
 640 128 l 1
 640 64 l 1
 576 64 l 1
 576 0 l 1
 512 0 l 1
 448 0 l 1
 384 0 l 1
 320 0 l 1
 256 0 l 1
 192 0 l 1
 128 0 l 1
 128 64 l 1
 128 128 l 1
 128 192 l 1
 128 256 l 1
 128 320 l 1
 128 384 l 1
 128 448 l 1
 128 512 l 1
 128 576 l 1
 128 640 l 1
 128 704 l 1
 128 768 l 1
256 384 m 1
 256 320 l 1
 256 256 l 1
 256 192 l 1
 256 128 l 1
 320 128 l 1
 384 128 l 1
 448 128 l 1
 512 128 l 1
 512 192 l 1
 512 256 l 1
 512 320 l 1
 512 384 l 1
 448 384 l 1
 384 384 l 1
 320 384 l 1
 256 384 l 1
EndSplineSet
Validated: 1
EndChar

StartChar: c
Encoding: 99 99 67
Width: 768
Flags: H
LayerCount: 2
Fore
SplineSet
192 512 m 1
 256 512 l 1
 320 512 l 1
 384 512 l 1
 448 512 l 1
 512 512 l 1
 576 512 l 1
 640 512 l 1
 640 448 l 1
 640 384 l 1
 576 384 l 1
 512 384 l 1
 448 384 l 1
 384 384 l 1
 320 384 l 1
 256 384 l 1
 256 320 l 1
 256 256 l 1
 256 192 l 1
 256 128 l 1
 320 128 l 1
 384 128 l 1
 448 128 l 1
 512 128 l 1
 576 128 l 1
 640 128 l 1
 640 64 l 1
 640 0 l 1
 576 0 l 1
 512 0 l 1
 448 0 l 1
 384 0 l 1
 320 0 l 1
 256 0 l 1
 192 0 l 1
 192 64 l 1
 128 64 l 1
 128 128 l 1
 128 192 l 1
 128 256 l 1
 128 320 l 1
 128 384 l 1
 128 448 l 1
 192 448 l 1
 192 512 l 1
EndSplineSet
Validated: 1
EndChar

StartChar: d
Encoding: 100 100 68
Width: 768
Flags: H
LayerCount: 2
Fore
SplineSet
512 768 m 1
 576 768 l 1
 640 768 l 1
 640 704 l 1
 640 640 l 1
 640 576 l 1
 640 512 l 1
 640 448 l 1
 640 384 l 1
 640 320 l 1
 640 256 l 1
 640 192 l 1
 640 128 l 1
 640 64 l 1
 640 0 l 1
 576 0 l 1
 512 0 l 1
 448 0 l 1
 384 0 l 1
 320 0 l 1
 256 0 l 1
 192 0 l 1
 192 64 l 1
 128 64 l 1
 128 128 l 1
 128 192 l 1
 128 256 l 1
 128 320 l 1
 128 384 l 1
 128 448 l 1
 192 448 l 1
 192 512 l 1
 256 512 l 1
 320 512 l 1
 384 512 l 1
 448 512 l 1
 512 512 l 1
 512 576 l 1
 512 640 l 1
 512 704 l 1
 512 768 l 1
256 384 m 1
 256 320 l 1
 256 256 l 1
 256 192 l 1
 256 128 l 1
 320 128 l 1
 384 128 l 1
 448 128 l 1
 512 128 l 1
 512 192 l 1
 512 256 l 1
 512 320 l 1
 512 384 l 1
 448 384 l 1
 384 384 l 1
 320 384 l 1
 256 384 l 1
EndSplineSet
Validated: 1
EndChar

StartChar: e
Encoding: 101 101 69
Width: 768
Flags: H
LayerCount: 2
Fore
SplineSet
192 512 m 1
 256 512 l 1
 320 512 l 1
 384 512 l 1
 448 512 l 1
 512 512 l 1
 576 512 l 1
 576 448 l 1
 640 448 l 1
 640 384 l 1
 640 320 l 1
 640 256 l 1
 576 256 l 1
 576 192 l 1
 512 192 l 1
 448 192 l 1
 384 192 l 1
 320 192 l 1
 256 192 l 1
 256 128 l 1
 320 128 l 1
 384 128 l 1
 448 128 l 1
 512 128 l 1
 576 128 l 1
 640 128 l 1
 640 64 l 1
 576 64 l 1
 576 0 l 1
 512 0 l 1
 448 0 l 1
 384 0 l 1
 320 0 l 1
 256 0 l 1
 192 0 l 1
 192 64 l 1
 128 64 l 1
 128 128 l 1
 128 192 l 1
 128 256 l 1
 128 320 l 1
 128 384 l 1
 128 448 l 1
 192 448 l 1
 192 512 l 1
256 384 m 1
 256 320 l 1
 320 320 l 1
 384 320 l 1
 448 320 l 1
 512 320 l 1
 512 384 l 1
 448 384 l 1
 384 384 l 1
 320 384 l 1
 256 384 l 1
EndSplineSet
Validated: 1
EndChar

StartChar: f
Encoding: 102 102 70
Width: 768
Flags: H
LayerCount: 2
Fore
SplineSet
384 768 m 1
 448 768 l 1
 512 768 l 1
 576 768 l 1
 576 704 l 1
 576 640 l 1
 512 640 l 1
 448 640 l 1
 448 576 l 1
 448 512 l 1
 512 512 l 1
 576 512 l 1
 576 448 l 1
 576 384 l 1
 512 384 l 1
 448 384 l 1
 448 320 l 1
 448 256 l 1
 448 192 l 1
 448 128 l 1
 448 64 l 1
 448 0 l 1
 384 0 l 1
 320 0 l 1
 320 64 l 1
 320 128 l 1
 320 192 l 1
 320 256 l 1
 320 320 l 1
 320 384 l 1
 256 384 l 1
 192 384 l 1
 192 448 l 1
 192 512 l 1
 256 512 l 1
 320 512 l 1
 320 576 l 1
 320 640 l 1
 320 704 l 1
 384 704 l 1
 384 768 l 1
EndSplineSet
Validated: 1
EndChar

StartChar: g
Encoding: 103 103 71
Width: 768
Flags: HW
LayerCount: 2
Fore
SplineSet
192 512 m 1
 256 512 l 1
 320 512 l 1
 384 512 l 1
 448 512 l 1
 512 512 l 1
 576 512 l 1
 576 448 l 1
 640 448 l 1
 640 384 l 1
 640 320 l 1
 640 256 l 1
 640 192 l 1
 640 128 l 1
 640 64 l 1
 640 0 l 1
 640 -64 l 1
 640 -128 l 1
 640 -192 l 1
 576 -192 l 1
 576 -256 l 1
 512 -256 l 1
 448 -256 l 1
 384 -256 l 1
 320 -256 l 1
 256 -256 l 1
 192 -256 l 1
 192 -192 l 1
 128 -192 l 1
 128 -128 l 1
 192 -128 l 1
 256 -128 l 1
 320 -128 l 1
 384 -128 l 1
 448 -128 l 1
 512 -128 l 1
 512 -64 l 1
 512 0 l 1
 448 0 l 1
 384 0 l 1
 320 0 l 1
 256 0 l 1
 192 0 l 1
 192 64 l 1
 128 64 l 1
 128 128 l 1
 128 192 l 1
 128 256 l 1
 128 320 l 1
 128 384 l 1
 128 448 l 1
 192 448 l 1
 192 512 l 1
256 384 m 1
 256 320 l 1
 256 256 l 1
 256 192 l 1
 256 128 l 1
 320 128 l 1
 384 128 l 1
 448 128 l 1
 512 128 l 1
 512 192 l 1
 512 256 l 1
 512 320 l 1
 512 384 l 1
 448 384 l 1
 384 384 l 1
 320 384 l 1
 256 384 l 1
EndSplineSet
Validated: 1
EndChar

StartChar: h
Encoding: 104 104 72
Width: 768
Flags: H
LayerCount: 2
Fore
SplineSet
128 768 m 1
 192 768 l 1
 256 768 l 1
 256 704 l 1
 256 640 l 1
 256 576 l 1
 256 512 l 1
 256 448 l 1
 320 448 l 1
 320 512 l 1
 384 512 l 1
 448 512 l 1
 512 512 l 1
 512 448 l 1
 576 448 l 1
 576 384 l 1
 640 384 l 1
 640 320 l 1
 640 256 l 1
 640 192 l 1
 640 128 l 1
 640 64 l 1
 640 0 l 1
 576 0 l 1
 512 0 l 1
 512 64 l 1
 512 128 l 1
 512 192 l 1
 512 256 l 1
 512 320 l 1
 448 320 l 1
 448 384 l 1
 384 384 l 1
 320 384 l 1
 320 320 l 1
 256 320 l 1
 256 256 l 1
 256 192 l 1
 256 128 l 1
 256 64 l 1
 256 0 l 1
 192 0 l 1
 128 0 l 1
 128 64 l 1
 128 128 l 1
 128 192 l 1
 128 256 l 1
 128 320 l 1
 128 384 l 1
 128 448 l 1
 128 512 l 1
 128 576 l 1
 128 640 l 1
 128 704 l 1
 128 768 l 1
EndSplineSet
Validated: 1
EndChar

StartChar: i
Encoding: 105 105 73
Width: 768
Flags: H
LayerCount: 2
Fore
SplineSet
320 704 m 1
 384 704 l 1
 448 704 l 1
 448 640 l 1
 448 576 l 1
 384 576 l 1
 320 576 l 1
 320 640 l 1
 320 704 l 1
320 512 m 1
 384 512 l 1
 448 512 l 1
 448 448 l 1
 448 384 l 1
 448 320 l 1
 448 256 l 1
 448 192 l 1
 448 128 l 1
 448 64 l 1
 448 0 l 1
 384 0 l 1
 320 0 l 1
 320 64 l 1
 320 128 l 1
 320 192 l 1
 320 256 l 1
 320 320 l 1
 320 384 l 1
 320 448 l 1
 320 512 l 1
EndSplineSet
Validated: 1
EndChar

StartChar: j
Encoding: 106 106 74
Width: 768
Flags: H
LayerCount: 2
Fore
SplineSet
448 704 m 1
 512 704 l 1
 576 704 l 1
 576 640 l 1
 576 576 l 1
 512 576 l 1
 448 576 l 1
 448 640 l 1
 448 704 l 1
448 512 m 1
 512 512 l 1
 576 512 l 1
 576 448 l 1
 576 384 l 1
 576 320 l 1
 576 256 l 1
 576 192 l 1
 576 128 l 1
 576 64 l 1
 512 64 l 1
 512 0 l 1
 448 0 l 1
 384 0 l 1
 320 0 l 1
 256 0 l 1
 256 64 l 1
 192 64 l 1
 192 128 l 1
 192 192 l 1
 256 192 l 1
 320 192 l 1
 320 128 l 1
 384 128 l 1
 448 128 l 1
 448 192 l 1
 448 256 l 1
 448 320 l 1
 448 384 l 1
 448 448 l 1
 448 512 l 1
EndSplineSet
Validated: 1
EndChar

StartChar: k
Encoding: 107 107 75
Width: 768
Flags: H
LayerCount: 2
Fore
SplineSet
128 768 m 1
 192 768 l 1
 256 768 l 1
 256 704 l 1
 256 640 l 1
 256 576 l 1
 256 512 l 1
 256 448 l 1
 256 384 l 1
 320 384 l 1
 320 448 l 1
 384 448 l 1
 384 512 l 1
 448 512 l 1
 448 576 l 1
 512 576 l 1
 576 576 l 1
 576 512 l 1
 576 448 l 1
 512 448 l 1
 512 384 l 1
 448 384 l 1
 448 320 l 1
 384 320 l 1
 384 256 l 1
 448 256 l 1
 448 192 l 1
 512 192 l 1
 512 128 l 1
 576 128 l 1
 576 64 l 1
 576 0 l 1
 512 0 l 1
 448 0 l 1
 448 64 l 1
 384 64 l 1
 384 128 l 1
 320 128 l 1
 320 192 l 1
 256 192 l 1
 256 128 l 1
 256 64 l 1
 256 0 l 1
 192 0 l 1
 128 0 l 1
 128 64 l 1
 128 128 l 1
 128 192 l 1
 128 256 l 1
 128 320 l 1
 128 384 l 1
 128 448 l 1
 128 512 l 1
 128 576 l 1
 128 640 l 1
 128 704 l 1
 128 768 l 1
EndSplineSet
Validated: 1
EndChar

StartChar: l
Encoding: 108 108 76
Width: 768
Flags: H
LayerCount: 2
Fore
SplineSet
256 768 m 1
 320 768 l 1
 384 768 l 1
 384 704 l 1
 384 640 l 1
 384 576 l 1
 384 512 l 1
 384 448 l 1
 384 384 l 1
 384 320 l 1
 384 256 l 1
 384 192 l 1
 384 128 l 1
 448 128 l 1
 512 128 l 1
 512 64 l 1
 512 0 l 1
 448 0 l 1
 384 0 l 1
 320 0 l 1
 320 64 l 1
 256 64 l 1
 256 128 l 1
 256 192 l 1
 256 256 l 1
 256 320 l 1
 256 384 l 1
 256 448 l 1
 256 512 l 1
 256 576 l 1
 256 640 l 1
 256 704 l 1
 256 768 l 1
EndSplineSet
Validated: 1
EndChar

StartChar: m
Encoding: 109 109 77
Width: 768
Flags: H
LayerCount: 2
Fore
SplineSet
128 512 m 1
 192 512 l 1
 256 512 l 1
 320 512 l 1
 384 512 l 1
 448 512 l 1
 512 512 l 1
 576 512 l 1
 576 448 l 1
 640 448 l 1
 640 384 l 1
 640 320 l 1
 640 256 l 1
 640 192 l 1
 640 128 l 1
 640 64 l 1
 640 0 l 1
 576 0 l 1
 512 0 l 1
 512 64 l 1
 512 128 l 1
 512 192 l 1
 512 256 l 1
 512 320 l 1
 512 384 l 1
 448 384 l 1
 448 320 l 1
 448 256 l 1
 448 192 l 1
 448 128 l 1
 448 64 l 1
 448 0 l 1
 384 0 l 1
 320 0 l 1
 320 64 l 1
 320 128 l 1
 320 192 l 1
 320 256 l 1
 320 320 l 1
 320 384 l 1
 256 384 l 1
 256 320 l 1
 256 256 l 1
 256 192 l 1
 256 128 l 1
 256 64 l 1
 256 0 l 1
 192 0 l 1
 128 0 l 1
 128 64 l 1
 128 128 l 1
 128 192 l 1
 128 256 l 1
 128 320 l 1
 128 384 l 1
 128 448 l 1
 128 512 l 1
EndSplineSet
Validated: 1
EndChar

StartChar: n
Encoding: 110 110 78
Width: 768
Flags: H
LayerCount: 2
Fore
SplineSet
128 512 m 1
 192 512 l 1
 256 512 l 1
 320 512 l 1
 384 512 l 1
 448 512 l 1
 512 512 l 1
 576 512 l 1
 576 448 l 1
 640 448 l 1
 640 384 l 1
 640 320 l 1
 640 256 l 1
 640 192 l 1
 640 128 l 1
 640 64 l 1
 640 0 l 1
 576 0 l 1
 512 0 l 1
 512 64 l 1
 512 128 l 1
 512 192 l 1
 512 256 l 1
 512 320 l 1
 512 384 l 1
 448 384 l 1
 384 384 l 1
 320 384 l 1
 256 384 l 1
 256 320 l 1
 256 256 l 1
 256 192 l 1
 256 128 l 1
 256 64 l 1
 256 0 l 1
 192 0 l 1
 128 0 l 1
 128 64 l 1
 128 128 l 1
 128 192 l 1
 128 256 l 1
 128 320 l 1
 128 384 l 1
 128 448 l 1
 128 512 l 1
EndSplineSet
Validated: 1
EndChar

StartChar: o
Encoding: 111 111 79
Width: 768
Flags: H
LayerCount: 2
Fore
SplineSet
192 512 m 1
 256 512 l 1
 320 512 l 1
 384 512 l 1
 448 512 l 1
 512 512 l 1
 576 512 l 1
 576 448 l 1
 640 448 l 1
 640 384 l 1
 640 320 l 1
 640 256 l 1
 640 192 l 1
 640 128 l 1
 640 64 l 1
 576 64 l 1
 576 0 l 1
 512 0 l 1
 448 0 l 1
 384 0 l 1
 320 0 l 1
 256 0 l 1
 192 0 l 1
 192 64 l 1
 128 64 l 1
 128 128 l 1
 128 192 l 1
 128 256 l 1
 128 320 l 1
 128 384 l 1
 128 448 l 1
 192 448 l 1
 192 512 l 1
256 384 m 1
 256 320 l 1
 256 256 l 1
 256 192 l 1
 256 128 l 1
 320 128 l 1
 384 128 l 1
 448 128 l 1
 512 128 l 1
 512 192 l 1
 512 256 l 1
 512 320 l 1
 512 384 l 1
 448 384 l 1
 384 384 l 1
 320 384 l 1
 256 384 l 1
EndSplineSet
Validated: 1
EndChar

StartChar: p
Encoding: 112 112 80
Width: 768
Flags: HW
LayerCount: 2
Fore
SplineSet
192 512 m 1
 256 512 l 1
 320 512 l 1
 384 512 l 1
 448 512 l 1
 512 512 l 1
 576 512 l 1
 576 448 l 1
 640 448 l 1
 640 384 l 1
 640 320 l 1
 640 256 l 1
 640 192 l 1
 640 128 l 1
 640 64 l 1
 576 64 l 1
 576 0 l 1
 512 0 l 1
 448 0 l 1
 384 0 l 1
 320 0 l 1
 256 0 l 1
 256 -64 l 1
 256 -128 l 1
 256 -192 l 1
 256 -256 l 1
 192 -256 l 1
 128 -256 l 1
 128 -192 l 1
 128 -128 l 1
 128 -64 l 1
 128 0 l 1
 128 64 l 1
 128 128 l 1
 128 192 l 1
 128 256 l 1
 128 320 l 1
 128 384 l 1
 128 448 l 1
 192 448 l 1
 192 512 l 1
256 384 m 1
 256 320 l 1
 256 256 l 1
 256 192 l 1
 256 128 l 1
 320 128 l 1
 384 128 l 1
 448 128 l 1
 512 128 l 1
 512 192 l 1
 512 256 l 1
 512 320 l 1
 512 384 l 1
 448 384 l 1
 384 384 l 1
 320 384 l 1
 256 384 l 1
EndSplineSet
Validated: 1
EndChar

StartChar: q
Encoding: 113 113 81
Width: 768
Flags: H
LayerCount: 2
Fore
SplineSet
192 512 m 1
 256 512 l 1
 320 512 l 1
 384 512 l 1
 448 512 l 1
 512 512 l 1
 576 512 l 1
 576 448 l 1
 640 448 l 1
 640 384 l 1
 640 320 l 1
 640 256 l 1
 640 192 l 1
 640 128 l 1
 640 64 l 1
 640 0 l 1
 640 -64 l 1
 640 -128 l 1
 640 -192 l 1
 640 -256 l 1
 576 -256 l 1
 512 -256 l 1
 512 -192 l 1
 512 -128 l 1
 512 -64 l 1
 512 0 l 1
 448 0 l 1
 384 0 l 1
 320 0 l 1
 256 0 l 1
 192 0 l 1
 192 64 l 1
 128 64 l 1
 128 128 l 1
 128 192 l 1
 128 256 l 1
 128 320 l 1
 128 384 l 1
 128 448 l 1
 192 448 l 1
 192 512 l 1
256 384 m 1
 256 320 l 1
 256 256 l 1
 256 192 l 1
 256 128 l 1
 320 128 l 1
 384 128 l 1
 448 128 l 1
 512 128 l 1
 512 192 l 1
 512 256 l 1
 512 320 l 1
 512 384 l 1
 448 384 l 1
 384 384 l 1
 320 384 l 1
 256 384 l 1
EndSplineSet
Validated: 1
EndChar

StartChar: r
Encoding: 114 114 82
Width: 768
Flags: H
LayerCount: 2
Fore
SplineSet
128 512 m 1
 192 512 l 1
 256 512 l 1
 256 448 l 1
 320 448 l 1
 320 512 l 1
 384 512 l 1
 448 512 l 1
 512 512 l 1
 576 512 l 1
 576 448 l 1
 640 448 l 1
 640 384 l 1
 640 320 l 1
 576 320 l 1
 512 320 l 1
 512 384 l 1
 448 384 l 1
 384 384 l 1
 320 384 l 1
 320 320 l 1
 256 320 l 1
 256 256 l 1
 256 192 l 1
 256 128 l 1
 256 64 l 1
 256 0 l 1
 192 0 l 1
 128 0 l 1
 128 64 l 1
 128 128 l 1
 128 192 l 1
 128 256 l 1
 128 320 l 1
 128 384 l 1
 128 448 l 1
 128 512 l 1
EndSplineSet
Validated: 1
EndChar

StartChar: s
Encoding: 115 115 83
Width: 768
Flags: H
LayerCount: 2
Fore
SplineSet
192 512 m 1
 256 512 l 1
 320 512 l 1
 384 512 l 1
 448 512 l 1
 512 512 l 1
 576 512 l 1
 576 448 l 1
 640 448 l 1
 640 384 l 1
 576 384 l 1
 512 384 l 1
 448 384 l 1
 384 384 l 1
 320 384 l 1
 256 384 l 1
 256 320 l 1
 320 320 l 1
 384 320 l 1
 448 320 l 1
 512 320 l 1
 576 320 l 1
 576 256 l 1
 640 256 l 1
 640 192 l 1
 640 128 l 1
 640 64 l 1
 576 64 l 1
 576 0 l 1
 512 0 l 1
 448 0 l 1
 384 0 l 1
 320 0 l 1
 256 0 l 1
 192 0 l 1
 192 64 l 1
 128 64 l 1
 128 128 l 1
 192 128 l 1
 256 128 l 1
 320 128 l 1
 384 128 l 1
 448 128 l 1
 512 128 l 1
 512 192 l 1
 448 192 l 1
 384 192 l 1
 320 192 l 1
 256 192 l 1
 192 192 l 1
 192 256 l 1
 128 256 l 1
 128 320 l 1
 128 384 l 1
 128 448 l 1
 192 448 l 1
 192 512 l 1
EndSplineSet
Validated: 1
EndChar

StartChar: t
Encoding: 116 116 84
Width: 768
Flags: H
LayerCount: 2
Fore
SplineSet
320 768 m 1
 384 768 l 1
 448 768 l 1
 448 704 l 1
 448 640 l 1
 448 576 l 1
 448 512 l 1
 512 512 l 1
 576 512 l 1
 576 448 l 1
 576 384 l 1
 512 384 l 1
 448 384 l 1
 448 320 l 1
 448 256 l 1
 448 192 l 1
 448 128 l 1
 512 128 l 1
 512 64 l 1
 512 0 l 1
 448 0 l 1
 384 0 l 1
 384 64 l 1
 320 64 l 1
 320 128 l 1
 320 192 l 1
 320 256 l 1
 320 320 l 1
 320 384 l 1
 256 384 l 1
 192 384 l 1
 192 448 l 1
 192 512 l 1
 256 512 l 1
 320 512 l 1
 320 576 l 1
 320 640 l 1
 320 704 l 1
 320 768 l 1
EndSplineSet
Validated: 1
EndChar

StartChar: u
Encoding: 117 117 85
Width: 768
Flags: H
LayerCount: 2
Fore
SplineSet
128 512 m 1
 192 512 l 1
 256 512 l 1
 256 448 l 1
 256 384 l 1
 256 320 l 1
 256 256 l 1
 256 192 l 1
 256 128 l 1
 320 128 l 1
 384 128 l 1
 448 128 l 1
 512 128 l 1
 512 192 l 1
 512 256 l 1
 512 320 l 1
 512 384 l 1
 512 448 l 1
 512 512 l 1
 576 512 l 1
 640 512 l 1
 640 448 l 1
 640 384 l 1
 640 320 l 1
 640 256 l 1
 640 192 l 1
 640 128 l 1
 640 64 l 1
 576 64 l 1
 576 0 l 1
 512 0 l 1
 448 0 l 1
 384 0 l 1
 320 0 l 1
 256 0 l 1
 192 0 l 1
 192 64 l 1
 128 64 l 1
 128 128 l 1
 128 192 l 1
 128 256 l 1
 128 320 l 1
 128 384 l 1
 128 448 l 1
 128 512 l 1
EndSplineSet
Validated: 1
EndChar

StartChar: v
Encoding: 118 118 86
Width: 768
Flags: H
LayerCount: 2
Fore
SplineSet
128 512 m 1
 192 512 l 1
 256 512 l 1
 256 448 l 1
 256 384 l 1
 256 320 l 1
 256 256 l 1
 320 256 l 1
 320 192 l 1
 384 192 l 1
 448 192 l 1
 448 256 l 1
 512 256 l 1
 512 320 l 1
 512 384 l 1
 512 448 l 1
 512 512 l 1
 576 512 l 1
 640 512 l 1
 640 448 l 1
 640 384 l 1
 640 320 l 1
 640 256 l 1
 640 192 l 1
 576 192 l 1
 576 128 l 1
 512 128 l 1
 512 64 l 1
 448 64 l 1
 448 0 l 1
 384 0 l 1
 320 0 l 1
 320 64 l 1
 256 64 l 1
 256 128 l 1
 192 128 l 1
 192 192 l 1
 128 192 l 1
 128 256 l 1
 128 320 l 1
 128 384 l 1
 128 448 l 1
 128 512 l 1
EndSplineSet
Validated: 1
EndChar

StartChar: w
Encoding: 119 119 87
Width: 768
Flags: H
LayerCount: 2
Fore
SplineSet
128 512 m 1
 192 512 l 1
 256 512 l 1
 256 448 l 1
 256 384 l 1
 256 320 l 1
 256 256 l 1
 256 192 l 1
 256 128 l 1
 320 128 l 1
 320 192 l 1
 320 256 l 1
 320 320 l 1
 320 384 l 1
 384 384 l 1
 448 384 l 1
 448 320 l 1
 448 256 l 1
 448 192 l 1
 448 128 l 1
 512 128 l 1
 512 192 l 1
 512 256 l 1
 512 320 l 1
 512 384 l 1
 512 448 l 1
 512 512 l 1
 576 512 l 1
 640 512 l 1
 640 448 l 1
 640 384 l 1
 640 320 l 1
 640 256 l 1
 640 192 l 1
 640 128 l 1
 640 64 l 1
 576 64 l 1
 576 0 l 1
 512 0 l 1
 448 0 l 1
 384 0 l 1
 320 0 l 1
 256 0 l 1
 192 0 l 1
 192 64 l 1
 128 64 l 1
 128 128 l 1
 128 192 l 1
 128 256 l 1
 128 320 l 1
 128 384 l 1
 128 448 l 1
 128 512 l 1
EndSplineSet
Validated: 1
EndChar

StartChar: x
Encoding: 120 120 88
Width: 768
Flags: H
LayerCount: 2
Fore
SplineSet
128 512 m 1
 192 512 l 1
 256 512 l 1
 256 448 l 1
 320 448 l 1
 320 384 l 1
 384 384 l 1
 448 384 l 1
 448 448 l 1
 512 448 l 1
 512 512 l 1
 576 512 l 1
 640 512 l 1
 640 448 l 1
 640 384 l 1
 576 384 l 1
 576 320 l 1
 512 320 l 1
 512 256 l 1
 512 192 l 1
 576 192 l 1
 576 128 l 1
 640 128 l 1
 640 64 l 1
 640 0 l 1
 576 0 l 1
 512 0 l 1
 512 64 l 1
 448 64 l 1
 448 128 l 1
 384 128 l 1
 320 128 l 1
 320 64 l 1
 256 64 l 1
 256 0 l 1
 192 0 l 1
 128 0 l 1
 128 64 l 1
 128 128 l 1
 192 128 l 1
 192 192 l 1
 256 192 l 1
 256 256 l 1
 256 320 l 1
 192 320 l 1
 192 384 l 1
 128 384 l 1
 128 448 l 1
 128 512 l 1
EndSplineSet
Validated: 1
EndChar

StartChar: y
Encoding: 121 121 89
Width: 768
Flags: HW
LayerCount: 2
Fore
SplineSet
128 512 m 1
 192 512 l 1
 256 512 l 1
 256 448 l 1
 256 384 l 1
 256 320 l 1
 256 256 l 1
 256 192 l 1
 256 128 l 1
 320 128 l 1
 384 128 l 1
 448 128 l 1
 512 128 l 1
 512 192 l 1
 512 256 l 1
 512 320 l 1
 512 384 l 1
 512 448 l 1
 512 512 l 1
 576 512 l 1
 640 512 l 1
 640 448 l 1
 640 384 l 1
 640 320 l 1
 640 256 l 1
 640 192 l 1
 640 128 l 1
 640 64 l 1
 640 0 l 1
 640 -64 l 1
 640 -128 l 1
 640 -192 l 1
 576 -192 l 1
 576 -256 l 1
 512 -256 l 1
 448 -256 l 1
 384 -256 l 1
 320 -256 l 1
 256 -256 l 1
 192 -256 l 1
 192 -192 l 1
 128 -192 l 1
 128 -128 l 1
 192 -128 l 1
 256 -128 l 1
 320 -128 l 1
 384 -128 l 1
 448 -128 l 1
 512 -128 l 1
 512 -64 l 1
 512 0 l 1
 448 0 l 1
 384 0 l 1
 320 0 l 1
 256 0 l 1
 192 0 l 1
 192 64 l 1
 128 64 l 1
 128 128 l 1
 128 192 l 1
 128 256 l 1
 128 320 l 1
 128 384 l 1
 128 448 l 1
 128 512 l 1
EndSplineSet
Validated: 1
EndChar

StartChar: z
Encoding: 122 122 90
Width: 768
Flags: H
LayerCount: 2
Fore
SplineSet
128 512 m 1
 192 512 l 1
 256 512 l 1
 320 512 l 1
 384 512 l 1
 448 512 l 1
 512 512 l 1
 576 512 l 1
 640 512 l 1
 640 448 l 1
 640 384 l 1
 640 320 l 1
 640 256 l 1
 576 256 l 1
 512 256 l 1
 512 192 l 1
 448 192 l 1
 384 192 l 1
 384 128 l 1
 448 128 l 1
 512 128 l 1
 576 128 l 1
 640 128 l 1
 640 64 l 1
 640 0 l 1
 576 0 l 1
 512 0 l 1
 448 0 l 1
 384 0 l 1
 320 0 l 1
 256 0 l 1
 192 0 l 1
 128 0 l 1
 128 64 l 1
 128 128 l 1
 128 192 l 1
 192 192 l 1
 256 192 l 1
 256 256 l 1
 320 256 l 1
 384 256 l 1
 384 320 l 1
 448 320 l 1
 512 320 l 1
 512 384 l 1
 448 384 l 1
 384 384 l 1
 320 384 l 1
 256 384 l 1
 192 384 l 1
 128 384 l 1
 128 448 l 1
 128 512 l 1
EndSplineSet
Validated: 1
EndChar
